<svg width="59" height="59" viewBox="0 0 59 59" fill="none" xmlns="http://www.w3.org/2000/svg">
<circle cx="29.5509" cy="29.5519" r="28.7931" fill="#F7931A"/>
<path fill-rule="evenodd" clip-rule="evenodd" d="M34.5011 29.4719C36.2445 29.0491 37.5632 27.864 37.9269 25.4252C38.4286 22.0939 35.9757 20.3181 32.6144 19.1438L33.7307 14.6293L31.0664 13.9608L29.9788 18.3562C29.28 18.1791 28.5615 18.0129 27.8466 17.8503L28.9414 13.4243L26.2789 12.7559L25.1626 17.2686C24.5821 17.1367 24.0123 17.0049 23.4605 16.8658L23.4641 16.8531L19.791 15.9282L19.0654 18.862C19.0654 18.862 21.0416 19.3191 20.9986 19.3462C22.0791 19.6189 22.2708 20.3524 22.2349 20.9359L20.9628 26.0792C21.0573 26.1029 21.1501 26.1331 21.2405 26.1695L20.9574 26.099L19.1764 33.3035C19.0421 33.6414 18.7052 34.149 17.9491 33.9629C17.976 34.0009 16.014 33.4752 16.014 33.4752L14.6738 36.6222L18.1408 37.4947C18.5315 37.5932 18.917 37.6944 19.2988 37.7945C19.5473 37.8597 19.7942 37.9245 20.0401 37.9879L18.9113 42.5549L21.5702 43.2233L22.6882 38.7069C23.3933 38.8997 24.1005 39.0846 24.8096 39.2615L23.697 43.7599L26.3595 44.4283L27.4883 39.8722C32.0321 40.7303 35.4543 40.3545 36.9164 36.1145C38.0935 32.7002 36.8859 30.7419 34.5011 29.4719ZM46.567 40.1973L47.5435 36.2536L51.4549 37.2381L52.1053 34.6078L48.1939 33.625L49.1686 29.6814L46.5617 29.0256L45.5852 32.9693L41.6738 31.9865L41.0234 34.615L44.9348 35.5978L43.9601 39.5433L46.567 40.1973ZM31.7869 34.2502C32.5777 31.0511 27.9769 30.0124 25.7268 29.5044L25.7266 29.5044C25.4737 29.4473 25.2504 29.3969 25.0679 29.3509L23.5754 35.3974C23.725 35.4348 23.9003 35.4815 24.0967 35.5338L24.0967 35.5339C26.2712 36.1133 31.0181 37.3783 31.7905 34.2484L31.7869 34.2502ZM27.659 21.2213C29.5349 21.6386 33.3776 22.4935 32.6592 25.4053C31.9538 28.2536 27.9934 27.184 26.1846 26.6955C26.0225 26.6517 25.8776 26.6126 25.7539 26.5814L27.1102 21.0949C27.2621 21.1331 27.4481 21.1744 27.659 21.2213Z" fill="white"/>
</svg>
