<svg width="70" height="70" viewBox="0 0 70 70" fill="none" xmlns="http://www.w3.org/2000/svg">
<path fill-rule="evenodd" clip-rule="evenodd" d="M23.782 24.198L34.9656 13.0144L46.1587 24.2076L52.6657 17.7006L34.9656 0.000488281L17.2751 17.691L23.782 24.198ZM6.16992 28.7956L12.6752 22.2903L19.1805 28.7956L12.6752 35.3009L6.16992 28.7956ZM34.9656 44.5814L23.782 33.3978L17.2654 39.8952L17.275 39.9048L34.9656 57.5953L52.6657 39.8952L46.1587 33.3882L34.9656 44.5814ZM50.7454 28.8002L57.2507 22.2949L63.756 28.8002L57.2507 35.3054L50.7454 28.8002ZM34.9656 22.1951L41.5684 28.7979L34.9656 35.4103L28.3628 28.8075V28.7883L29.5224 27.6288L30.0878 27.073L34.9656 22.1951Z" fill="#F3BA2F"/>
</svg>
