<svg width="57" height="57" viewBox="0 0 57 57" fill="none" xmlns="http://www.w3.org/2000/svg">
<path d="M25.4315 25.4321C27.4474 25.9258 29.5527 25.9258 31.5687 25.4321C32.132 23.1412 33.3117 21.0483 34.9799 19.3801C36.648 17.7119 38.741 16.5322 41.0319 15.9689C41.4962 14.0698 41.5229 12.0901 41.1099 10.1792C40.6969 8.26831 39.8551 6.47627 38.648 4.93846C37.4408 3.40064 35.9 2.15725 34.1419 1.30224C32.3838 0.44722 30.4544 0.00292969 28.4994 0.00292969C26.5444 0.00292969 24.6149 0.44722 22.8568 1.30224C21.0987 2.15725 19.5579 3.40064 18.3508 4.93846C17.1437 6.47627 16.3018 8.26831 15.8888 10.1792C15.4758 12.0901 15.5025 14.0698 15.9668 15.9689C18.2582 16.5316 20.3517 17.711 22.0202 19.3793C23.6887 21.0475 24.8685 23.1409 25.4315 25.4321Z" fill="#7ABDF7"/>
<path d="M31.5692 31.567C29.5532 31.0734 27.448 31.0734 25.432 31.567C24.8687 33.8579 23.689 35.9509 22.0208 37.619C20.3526 39.2872 18.2597 40.4669 15.9688 41.0302C15.5045 42.9293 15.4778 44.909 15.8908 46.8199C16.3038 48.7308 17.1456 50.5228 18.3527 52.0607C19.5598 53.5985 21.1007 54.8419 22.8588 55.6969C24.6169 56.5519 26.5463 56.9962 28.5013 56.9962C30.4563 56.9962 32.3857 56.5519 34.1439 55.6969C35.902 54.8419 37.4428 53.5985 38.6499 52.0607C39.857 50.5228 40.6989 48.7308 41.1119 46.8199C41.5249 44.909 41.4982 42.9293 41.0339 41.0302C38.7425 40.4676 36.649 39.2881 34.9805 37.6199C33.312 35.9516 32.1322 33.8583 31.5692 31.567Z" fill="#0D74F5"/>
<path d="M44.1004 15.5981C43.0669 15.5979 42.0371 15.7221 41.0332 15.9679C40.4705 18.2587 39.2911 20.3517 37.6231 22.0197C35.9551 23.6877 33.8622 24.867 31.5714 25.4298C31.0778 27.4457 31.0778 29.551 31.5714 31.5669C33.8622 32.1301 35.9551 33.3097 37.6231 34.9779C39.2911 36.6462 40.4704 38.7392 41.0332 41.0302C42.8053 41.463 44.649 41.5151 46.4427 41.1831C48.2364 40.8511 49.9393 40.1425 51.439 39.1041C52.9388 38.0657 54.2012 36.721 55.1432 35.1589C56.0851 33.5967 56.685 31.8526 56.9034 30.0415C57.1218 28.2305 56.9537 26.3937 56.4101 24.6524C55.8665 22.9111 54.9599 21.3049 53.75 19.9397C52.5401 18.5745 51.0545 17.4814 49.3911 16.7326C47.7278 15.9837 45.9245 15.596 44.1004 15.5952V15.5981Z" fill="#4494F7"/>
<path d="M25.4312 31.5663C25.9248 29.5503 25.9248 27.4451 25.4312 25.4291C23.1402 24.8663 21.0471 23.687 19.3789 22.019C17.7107 20.3511 16.531 18.2581 15.9679 15.9673C14.0688 15.503 12.0891 15.4763 10.1782 15.8893C8.26734 16.3023 6.4753 17.1441 4.93748 18.3513C3.39966 19.5584 2.15628 21.0992 1.30126 22.8573C0.446243 24.6154 0.00195313 26.5448 0.00195312 28.4998C0.00195313 30.4548 0.446243 32.3843 1.30126 34.1424C2.15628 35.9005 3.39966 37.4413 4.93748 38.6484C6.4753 39.8555 8.26734 40.6974 10.1782 41.1104C12.0891 41.5234 14.0688 41.4967 15.9679 41.0324C16.5305 38.7408 17.7099 36.6471 19.3782 34.9783C21.0464 33.3096 23.1398 32.1296 25.4312 31.5663Z" fill="#005CF4"/>
<path d="M31.5684 25.4325C33.8593 24.8691 35.9522 23.6894 37.6204 22.0213C39.2886 20.3531 40.4683 18.2601 41.0316 15.9692C38.7407 16.5326 36.6477 17.7123 34.9796 19.3804C33.3114 21.0486 32.1317 23.1416 31.5684 25.4325Z" fill="#186EF9"/>
<path d="M31.5684 31.5664C32.1313 33.8575 33.3108 35.9507 34.9791 37.619C36.6473 39.2872 38.7405 40.4668 41.0316 41.0297C40.4683 38.7388 39.2886 36.6458 37.6204 34.9776C35.9522 33.3095 33.8593 32.1298 31.5684 31.5664Z" fill="#0246F2"/>
<path d="M25.432 25.4325C24.8687 23.1416 23.6889 21.0486 22.0208 19.3804C20.3526 17.7123 18.2596 16.5326 15.9688 15.9692C16.5321 18.2601 17.7118 20.3531 19.38 22.0213C21.0481 23.6894 23.1411 24.8691 25.432 25.4325Z" fill="#0046F8"/>
<path d="M25.432 31.5664C23.1411 32.1298 21.0481 33.3095 19.38 34.9776C17.7118 36.6458 16.5321 38.7388 15.9688 41.0297C18.2596 40.4663 20.3526 39.2866 22.0208 37.6185C23.6889 35.9503 24.8687 33.8573 25.432 31.5664Z" fill="#0729F1"/>
<path d="M25.4315 25.4321C27.4474 25.9258 29.5527 25.9258 31.5687 25.4321C32.132 23.1412 33.3117 21.0483 34.9799 19.3801C36.648 17.7119 38.741 16.5322 41.0319 15.9689C41.4962 14.0698 41.5229 12.0901 41.1099 10.1792C40.6969 8.26831 39.8551 6.47627 38.648 4.93846C37.4408 3.40064 35.9 2.15725 34.1419 1.30224C32.3838 0.44722 30.4544 0.00292969 28.4994 0.00292969C26.5444 0.00292969 24.6149 0.44722 22.8568 1.30224C21.0987 2.15725 19.5579 3.40064 18.3508 4.93846C17.1437 6.47627 16.3018 8.26831 15.8888 10.1792C15.4758 12.0901 15.5025 14.0698 15.9668 15.9689C18.2582 16.5316 20.3517 17.711 22.0202 19.3793C23.6887 21.0475 24.8685 23.1409 25.4315 25.4321Z" fill="#7ABDF7"/>
<path d="M31.5692 31.567C29.5532 31.0734 27.448 31.0734 25.432 31.567C24.8687 33.8579 23.689 35.9509 22.0208 37.619C20.3526 39.2872 18.2597 40.4669 15.9688 41.0302C15.5045 42.9293 15.4778 44.909 15.8908 46.8199C16.3038 48.7308 17.1456 50.5228 18.3527 52.0607C19.5598 53.5985 21.1007 54.8419 22.8588 55.6969C24.6169 56.5519 26.5463 56.9962 28.5013 56.9962C30.4563 56.9962 32.3857 56.5519 34.1439 55.6969C35.902 54.8419 37.4428 53.5985 38.6499 52.0607C39.857 50.5228 40.6989 48.7308 41.1119 46.8199C41.5249 44.909 41.4982 42.9293 41.0339 41.0302C38.7425 40.4676 36.649 39.2881 34.9805 37.6199C33.312 35.9516 32.1322 33.8583 31.5692 31.567Z" fill="#0D74F5"/>
<path d="M44.1004 15.5981C43.0669 15.5979 42.0371 15.7221 41.0332 15.9679C40.4705 18.2587 39.2911 20.3517 37.6231 22.0197C35.9551 23.6877 33.8622 24.867 31.5714 25.4298C31.0778 27.4457 31.0778 29.551 31.5714 31.5669C33.8622 32.1301 35.9551 33.3097 37.6231 34.9779C39.2911 36.6462 40.4704 38.7392 41.0332 41.0302C42.8053 41.463 44.649 41.5151 46.4427 41.1831C48.2364 40.8511 49.9393 40.1425 51.439 39.1041C52.9388 38.0657 54.2012 36.721 55.1432 35.1589C56.0851 33.5967 56.685 31.8526 56.9034 30.0415C57.1218 28.2305 56.9537 26.3937 56.4101 24.6524C55.8665 22.9111 54.9599 21.3049 53.75 19.9397C52.5401 18.5745 51.0545 17.4814 49.3911 16.7326C47.7278 15.9837 45.9245 15.596 44.1004 15.5952V15.5981Z" fill="#4494F7"/>
<path d="M25.4312 31.5663C25.9248 29.5503 25.9248 27.4451 25.4312 25.4291C23.1402 24.8663 21.0471 23.687 19.3789 22.019C17.7107 20.3511 16.531 18.2581 15.9679 15.9673C14.0688 15.503 12.0891 15.4763 10.1782 15.8893C8.26734 16.3023 6.4753 17.1441 4.93748 18.3513C3.39966 19.5584 2.15628 21.0992 1.30126 22.8573C0.446243 24.6154 0.00195313 26.5448 0.00195312 28.4998C0.00195313 30.4548 0.446243 32.3843 1.30126 34.1424C2.15628 35.9005 3.39966 37.4413 4.93748 38.6484C6.4753 39.8555 8.26734 40.6974 10.1782 41.1104C12.0891 41.5234 14.0688 41.4967 15.9679 41.0324C16.5305 38.7408 17.7099 36.6471 19.3782 34.9783C21.0464 33.3096 23.1398 32.1296 25.4312 31.5663Z" fill="#005CF4"/>
<path d="M31.5684 25.4325C33.8593 24.8691 35.9522 23.6894 37.6204 22.0213C39.2886 20.3531 40.4683 18.2601 41.0316 15.9692C38.7407 16.5326 36.6477 17.7123 34.9796 19.3804C33.3114 21.0486 32.1317 23.1416 31.5684 25.4325Z" fill="#186EF9"/>
<path d="M31.5684 31.5664C32.1313 33.8575 33.3108 35.9507 34.9791 37.619C36.6473 39.2872 38.7405 40.4668 41.0316 41.0297C40.4683 38.7388 39.2886 36.6458 37.6204 34.9776C35.9522 33.3095 33.8593 32.1298 31.5684 31.5664Z" fill="#0246F2"/>
<path d="M25.432 25.4325C24.8687 23.1416 23.6889 21.0486 22.0208 19.3804C20.3526 17.7123 18.2596 16.5326 15.9688 15.9692C16.5321 18.2601 17.7118 20.3531 19.38 22.0213C21.0481 23.6894 23.1411 24.8691 25.432 25.4325Z" fill="#0046F8"/>
<path d="M25.432 31.5664C23.1411 32.1298 21.0481 33.3095 19.38 34.9776C17.7118 36.6458 16.5321 38.7388 15.9688 41.0297C18.2596 40.4663 20.3526 39.2866 22.0208 37.6185C23.6889 35.9503 24.8687 33.8573 25.432 31.5664Z" fill="#0729F1"/>
</svg>
