<svg width="70" height="70" viewBox="0 0 70 70" fill="none" xmlns="http://www.w3.org/2000/svg">
<path d="M34.912 5.75879V26.9561C34.912 27.0461 34.822 27.1361 34.732 27.1361C34.1021 27.4111 33.5622 27.6837 32.9323 27.9562C32.1225 28.3187 31.2227 28.6838 30.4128 29.1388L27.4434 30.5014L25.0139 31.594L22.0445 32.9592C21.2346 33.3243 20.4248 33.6868 19.525 34.1418C18.8951 34.4144 18.1752 34.7794 17.5453 35.0519C17.4554 35.0519 17.4554 35.1419 17.3654 35.0519H17.2754C17.5453 34.5969 17.8153 34.2318 18.0852 33.7793C19.525 31.3215 21.0547 28.8663 22.4944 26.4085C24.0241 23.7733 25.6438 21.1329 27.1735 18.4952C28.6132 16.0399 30.0529 13.5847 31.4926 11.2194C32.5724 9.39665 33.6522 7.67156 34.642 5.84877C34.822 5.84877 34.822 5.75879 34.912 5.75879C34.912 5.75879 34.822 5.75879 34.912 5.75879Z" fill="#8C8C8C"/>
<path d="M52.3688 35.0518C51.0191 35.9619 49.5794 36.7794 48.2297 37.597C43.8205 40.2373 39.5014 42.7851 35.0922 45.4229C35.0022 45.4229 35.0022 45.5129 34.9122 45.5129C34.8223 45.5129 34.8223 45.4229 34.8223 45.4229V27.1359C34.8223 27.0459 34.9122 27.0459 35.0022 27.0459C35.3622 27.2259 35.7221 27.411 36.172 27.5909C37.2518 28.1385 38.4216 28.5936 39.5014 29.1386C40.4912 29.5937 41.391 30.0487 42.3808 30.4112C43.3706 30.8663 44.2704 31.3214 45.2602 31.7764C46.0701 32.1415 46.9699 32.504 47.7797 32.959C48.5896 33.3241 49.4894 33.6866 50.2993 34.1417C50.9291 34.4142 51.559 34.7792 52.2789 35.0518C52.2789 34.9618 52.2789 35.0518 52.3688 35.0518Z" fill="#141414"/>
<path d="M34.9118 63.3449C34.8218 63.3449 34.9118 63.3449 34.9118 63.3449C34.8218 63.3449 34.8218 63.3449 34.7319 63.2524C32.9322 60.7072 31.2225 58.2493 29.4229 55.7016L24.0239 48.0608C22.3143 45.6055 20.5146 43.1503 18.805 40.5999L17.4552 38.6897C17.4552 38.5997 17.3652 38.5997 17.3652 38.5098C17.4552 38.5098 17.4552 38.5997 17.5452 38.5997C19.9747 40.0549 22.4942 41.51 24.9238 42.9652C27.7132 44.6954 30.5927 46.3331 33.3821 48.0608C33.832 48.3333 34.3719 48.6058 34.8218 48.8783C34.9118 48.8783 34.9118 48.9709 34.9118 49.0609V63.3449Z" fill="#8C8C8C"/>
<path d="M17.2754 34.0999C17.2754 34.0099 17.2754 34.0099 17.2754 34.0999C18.1752 33.6448 19.075 33.2823 19.9749 32.8273L23.4842 31.1896C24.384 30.7346 25.2838 30.3721 26.1837 29.917C27.4434 29.2794 28.7931 28.7344 30.0529 28.0968C30.9527 27.7317 31.8526 27.2767 32.7524 26.9142C33.3823 26.6416 34.0121 26.3691 34.642 26.004C34.732 26.004 34.732 25.9141 34.822 25.9141V44.471C34.732 44.5636 34.732 44.471 34.642 44.471C34.3721 44.2911 34.1021 44.1985 33.9221 44.016L17.4554 34.1924C17.3654 34.0999 17.2754 34.0999 17.2754 34.0999ZM52.0986 37.4678C52.0986 37.5578 52.0986 37.5578 52.0086 37.6478C46.7896 45.1086 41.5707 52.4769 36.3517 59.9377C35.8118 60.7553 35.2719 61.4828 34.732 62.303V47.8364C35.9018 47.1088 37.0715 46.3812 38.2413 45.7462L52.0086 37.5578C52.0086 37.4678 52.0986 37.4678 52.0986 37.4678Z" fill="#3C3C3B"/>
<path d="M34.9121 27.0462V5.854L52.1887 34.7821C52.2787 34.8721 52.3687 34.962 52.3687 35.0546C52.0088 34.8746 51.6489 34.6895 51.1989 34.5096C50.749 34.327 50.2991 34.0545 49.8492 33.872C49.5793 33.782 49.3093 33.5995 48.9494 33.5069C48.4995 33.3269 47.9596 33.0518 47.5097 32.8719C47.2397 32.7793 46.9698 32.5994 46.6998 32.5068L44.8102 31.6893C44.4503 31.5067 44.1803 31.4167 43.8204 31.2342C43.3705 31.0517 42.9206 30.7791 42.4706 30.5966C42.2007 30.5066 41.9307 30.3241 41.6608 30.2341L39.7712 29.414C39.4112 29.234 39.1413 29.1415 38.7814 28.9589C38.3314 28.779 37.8815 28.5039 37.4316 28.3213C37.1617 28.1414 36.8017 28.0488 36.5318 27.8689L34.9121 27.0487V27.0462Z" fill="#343434"/>
</svg>
