<svg width="26" height="25" viewBox="0 0 26 25" fill="none" xmlns="http://www.w3.org/2000/svg">
    <path opacity="0.8" fill-rule="evenodd" clip-rule="evenodd"
        d="M0 12.5C0 5.59644 5.69014 0 12.7093 0C19.7284 0 25.4186 5.59644 25.4186 12.5C25.4186 19.4035 19.7284 25 12.7093 25C5.69014 25 0 19.4035 0 12.5ZM8.89651 11.875C8.89651 10.1491 10.3191 8.75 12.0738 8.75C13.8286 8.75 15.2512 10.1491 15.2512 11.875C15.2512 13.6009 13.8286 15 12.0738 15C10.3191 15 8.89651 13.6009 8.89651 11.875ZM12.0738 6.25C8.91522 6.25 6.35465 8.7684 6.35465 11.875C6.35465 14.9816 8.91522 17.5 12.0738 17.5C12.3154 17.5 12.5535 17.4853 12.7872 17.4567C14.2381 17.2791 15.8521 17.3589 16.8944 18.3839V18.3839C17.3906 18.872 18.1954 18.872 18.6917 18.3839C19.188 17.8957 19.188 17.1043 18.6917 16.6161V16.6161C17.6569 15.5983 17.5786 13.9871 17.7527 12.5461C17.7793 12.326 17.793 12.1021 17.793 11.875C17.793 8.7684 15.2325 6.25 12.0738 6.25Z"
        fill="white" />
</svg>