<svg width="20" height="13" viewBox="0 0 20 13" fill="none" xmlns="http://www.w3.org/2000/svg">
    <path fill-rule="evenodd" clip-rule="evenodd"
        d="M0 1.07843C0 0.482835 0.497467 0 1.11111 0H18.8889C19.5026 0 20 0.482835 20 1.07843C20 1.67403 19.5026 2.15686 18.8889 2.15686H1.11111C0.497467 2.15686 0 1.67403 0 1.07843ZM3.33333 6.47059C3.33333 5.87497 3.8308 5.39216 4.44444 5.39216H15.5556C16.1692 5.39216 16.6667 5.87497 16.6667 6.47059C16.6667 7.06621 16.1692 7.54902 15.5556 7.54902H4.44444C3.8308 7.54902 3.33333 7.06621 3.33333 6.47059ZM6.66667 11.8627C6.66667 11.2671 7.16413 10.7843 7.77778 10.7843H12.2222C12.8359 10.7843 13.3333 11.2671 13.3333 11.8627C13.3333 12.4584 12.8359 12.9412 12.2222 12.9412H7.77778C7.16413 12.9412 6.66667 12.4584 6.66667 11.8627Z"
        fill="white" />
</svg>