<svg width="80" height="80" viewBox="0 0 80 80" fill="none" xmlns="http://www.w3.org/2000/svg">
<g id="vuesax/bold/gallery">
<g id="gallery">
<path id="Vector" d="M8.60065 63.3666L8.53398 63.4333C7.63398 61.4666 7.06732 59.2333 6.83398 56.7666C7.06732 59.1999 7.70065 61.3999 8.60065 63.3666Z" fill="#292D32"/>
<path id="Vector_2" d="M30.0017 34.6001C34.3832 34.6001 37.935 31.0482 37.935 26.6667C37.935 22.2853 34.3832 18.7334 30.0017 18.7334C25.6202 18.7334 22.0684 22.2853 22.0684 26.6667C22.0684 31.0482 25.6202 34.6001 30.0017 34.6001Z" fill="white"/>
<path id="Vector_3" d="M53.968 6.6665H26.0346C13.9013 6.6665 6.66797 13.8998 6.66797 26.0332V53.9665C6.66797 57.5998 7.3013 60.7665 8.53464 63.4332C11.4013 69.7665 17.5346 73.3332 26.0346 73.3332H53.968C66.1013 73.3332 73.3346 66.0998 73.3346 53.9665V46.3332V26.0332C73.3346 13.8998 66.1013 6.6665 53.968 6.6665ZM67.9013 41.6665C65.3013 39.4332 61.1013 39.4332 58.5013 41.6665L44.6346 53.5665C42.0346 55.7998 37.8346 55.7998 35.2346 53.5665L34.1013 52.6332C31.7346 50.5665 27.968 50.3665 25.3013 52.1665L12.8346 60.5332C12.1013 58.6665 11.668 56.4998 11.668 53.9665V26.0332C11.668 16.6332 16.6346 11.6665 26.0346 11.6665H53.968C63.368 11.6665 68.3346 16.6332 68.3346 26.0332V42.0332L67.9013 41.6665Z" fill="white"/>
</g>
</g>
</svg>
