<svg width="29" height="20" viewBox="0 0 29 20" fill="none" xmlns="http://www.w3.org/2000/svg">
    <path
        d="M24.0917 4.34545C23.7601 3.89273 23.5625 3.33273 23.5625 2.72727C23.5625 1.22182 24.7805 0 26.2812 0C27.782 0 29 1.22182 29 2.72727C29 4.23273 27.782 5.45455 26.2812 5.45455C26.2504 5.45455 26.2196 5.45455 26.187 5.45273L19.4083 15.6545C19.7399 16.1073 19.9375 16.6673 19.9375 17.2727C19.9375 18.7782 18.7195 20 17.2187 20C15.718 20 14.5 18.7782 14.5 17.2727C14.5 16.7145 14.6668 16.1945 14.9549 15.7636L10.1971 9.08182C10.121 9.08727 10.0449 9.09091 9.96875 9.09091C9.89262 9.09091 9.8165 9.08727 9.74038 9.08182L4.98256 15.7636C5.27075 16.1945 5.4375 16.7145 5.4375 17.2727C5.4375 18.7782 4.2195 20 2.71875 20C1.218 20 0 18.7782 0 17.2727C0 15.7673 1.218 14.5455 2.71875 14.5455C2.79487 14.5455 2.871 14.5491 2.94713 14.5545L7.70494 7.87273C7.41675 7.44182 7.25 6.92182 7.25 6.36364C7.25 4.85818 8.468 3.63636 9.96875 3.63636C11.4695 3.63636 12.6875 4.85818 12.6875 6.36364C12.6875 6.92182 12.5208 7.44182 12.2326 7.87273L16.9904 14.5545C17.0665 14.5491 17.1426 14.5455 17.2187 14.5455C17.2496 14.5455 17.2804 14.5455 17.313 14.5473L24.0917 4.34545Z"
        fill="white" />
</svg>