<svg width="700" height="194" viewBox="0 0 700 194" fill="none" xmlns="http://www.w3.org/2000/svg">
<path d="M28.0988 40.7602H12.5138V30.9304H28.0988C30.5073 30.9304 32.4676 30.5383 33.9799 29.7542C35.4922 28.942 36.5984 27.8218 37.2985 26.3935C37.9987 24.9652 38.3487 23.3549 38.3487 21.5626C38.3487 19.7423 37.9987 18.0479 37.2985 16.4796C36.5984 14.9113 35.4922 13.6511 33.9799 12.6989C32.4676 11.7467 30.5073 11.2706 28.0988 11.2706H16.8827V62.5624H4.28027V1.39877H28.0988C32.8877 1.39877 36.9905 2.26693 40.4071 4.00326C43.8518 5.71159 46.4843 8.07804 48.3046 11.1026C50.125 14.1272 51.0352 17.5858 51.0352 21.4786C51.0352 25.4273 50.125 28.844 48.3046 31.7285C46.4843 34.6131 43.8518 36.8395 40.4071 38.4078C36.9905 39.9761 32.8877 40.7602 28.0988 40.7602Z" fill="white"/>
<path d="M59.7308 1.39877H82.5411C87.218 1.39877 91.2368 2.0989 94.5974 3.49917C97.9861 4.89943 100.591 6.97183 102.411 9.71635C104.231 12.4609 105.141 15.8355 105.141 19.8403C105.141 23.1169 104.581 25.9314 103.461 28.2839C102.369 30.6083 100.815 32.5547 98.7982 34.123C96.8099 35.6633 94.4714 36.8955 91.7829 37.8197L87.7921 39.9201H67.9644L67.8804 30.0902H82.6252C84.8376 30.0902 86.6719 29.6981 88.1282 28.914C89.5845 28.1298 90.6767 27.0376 91.4048 25.6374C92.161 24.2371 92.539 22.6128 92.539 20.7644C92.539 18.8041 92.175 17.1098 91.4468 15.6815C90.7187 14.2532 89.6125 13.161 88.1282 12.4049C86.6439 11.6487 84.7816 11.2706 82.5411 11.2706H72.3332V62.5624H59.7308V1.39877ZM93.9253 62.5624L79.9787 35.2992L93.2952 35.2152L107.41 61.9743V62.5624H93.9253Z" fill="white"/>
<path d="M155.887 52.7325V62.5624H123.331V52.7325H155.887ZM127.448 1.39877V62.5624H114.845V1.39877H127.448ZM151.644 26.3095V35.8873H123.331V26.3095H151.644ZM155.845 1.39877V11.2706H123.331V1.39877H155.845Z" fill="white"/>
<path d="M168.994 1.39877H179.664L195.375 46.3053L211.086 1.39877H221.756L199.659 62.5624H191.09L168.994 1.39877ZM163.238 1.39877H173.866L175.799 45.1711V62.5624H163.238V1.39877ZM216.883 1.39877H227.553V62.5624H214.95V45.1711L216.883 1.39877Z" fill="white"/>
<path d="M252.001 1.39877V62.5624H239.441V1.39877H252.001Z" fill="white"/>
<path d="M304.847 52.7325V62.5624H272.291V52.7325H304.847ZM276.408 1.39877V62.5624H263.806V1.39877H276.408ZM300.605 26.3095V35.8873H272.291V26.3095H300.605ZM304.805 1.39877V11.2706H272.291V1.39877H304.805Z" fill="white"/>
<path d="M312.199 1.39877H335.009C339.686 1.39877 343.705 2.0989 347.065 3.49917C350.454 4.89943 353.059 6.97183 354.879 9.71635C356.699 12.4609 357.609 15.8355 357.609 19.8403C357.609 23.1169 357.049 25.9314 355.929 28.2839C354.837 30.6083 353.283 32.5547 351.266 34.123C349.278 35.6633 346.939 36.8955 344.251 37.8197L340.26 39.9201H320.432L320.348 30.0902H335.093C337.306 30.0902 339.14 29.6981 340.596 28.914C342.052 28.1298 343.145 27.0376 343.873 25.6374C344.629 24.2371 345.007 22.6128 345.007 20.7644C345.007 18.8041 344.643 17.1098 343.915 15.6815C343.187 14.2532 342.08 13.161 340.596 12.4049C339.112 11.6487 337.25 11.2706 335.009 11.2706H324.801V62.5624H312.199V1.39877ZM346.393 62.5624L332.447 35.2992L345.763 35.2152L359.878 61.9743V62.5624H346.393Z" fill="white"/>
<path d="M428.057 52.7325V62.5624H397.265V52.7325H428.057ZM401.34 1.39877V62.5624H388.737V1.39877H401.34Z" fill="white"/>
<path d="M476.324 52.7325V62.5624H443.768V52.7325H476.324ZM447.885 1.39877V62.5624H435.282V1.39877H447.885ZM472.081 26.3095V35.8873H443.768V26.3095H472.081ZM476.282 1.39877V11.2706H443.768V1.39877H476.282Z" fill="white"/>
<path d="M508.544 11.8588L491.909 62.5624H478.508L501.235 1.39877H509.762L508.544 11.8588ZM522.365 62.5624L505.688 11.8588L504.343 1.39877H512.955L535.807 62.5624H522.365ZM521.609 39.7941V49.6659H489.304V39.7941H521.609Z" fill="white"/>
<path d="M589.199 30.5943V54.8329C588.247 55.9811 586.777 57.2274 584.789 58.5716C582.8 59.8879 580.238 61.0221 577.101 61.9743C573.964 62.9265 570.17 63.4025 565.717 63.4025C561.768 63.4025 558.169 62.7584 554.921 61.4702C551.672 60.1539 548.872 58.2356 546.519 55.7151C544.195 53.1946 542.403 50.114 541.142 46.4733C539.882 42.8046 539.252 38.6178 539.252 33.9129V30.0902C539.252 25.3853 539.854 21.1985 541.058 17.5298C542.29 13.8611 544.041 10.7665 546.309 8.24607C548.578 5.72559 551.28 3.80723 554.417 2.49098C557.553 1.17473 561.04 0.516602 564.877 0.516602C570.198 0.516602 574.567 1.38477 577.983 3.1211C581.4 4.82942 584.004 7.20987 585.797 10.2625C587.617 13.287 588.737 16.7597 589.157 20.6804H576.933C576.625 18.608 576.037 16.8017 575.169 15.2614C574.301 13.7211 573.054 12.5169 571.43 11.6487C569.834 10.7806 567.761 10.3465 565.213 10.3465C563.112 10.3465 561.236 10.7806 559.584 11.6487C557.959 12.4889 556.587 13.7351 555.467 15.3874C554.347 17.0397 553.493 19.0841 552.904 21.5206C552.316 23.9571 552.022 26.7856 552.022 30.0062V33.9129C552.022 37.1056 552.33 39.9341 552.946 42.3986C553.563 44.835 554.473 46.8934 555.677 48.5737C556.909 50.226 558.422 51.4723 560.214 52.3124C562.006 53.1526 564.093 53.5727 566.473 53.5727C568.461 53.5727 570.114 53.4046 571.43 53.0686C572.774 52.7325 573.852 52.3264 574.665 51.8504C575.505 51.3463 576.149 50.8702 576.597 50.4221V39.584H565.087V30.5943H589.199Z" fill="white"/>
<path d="M633.14 1.39877H645.7V41.8104C645.7 46.5153 644.692 50.4781 642.676 53.6987C640.687 56.9193 637.929 59.3418 634.4 60.9661C630.899 62.5904 626.867 63.4025 622.302 63.4025C617.737 63.4025 613.676 62.5904 610.119 60.9661C606.591 59.3418 603.818 56.9193 601.802 53.6987C599.813 50.4781 598.819 46.5153 598.819 41.8104V1.39877H611.422V41.8104C611.422 44.555 611.856 46.7954 612.724 48.5317C613.592 50.2681 614.838 51.5423 616.463 52.3545C618.115 53.1666 620.061 53.5727 622.302 53.5727C624.598 53.5727 626.544 53.1666 628.141 52.3545C629.765 51.5423 630.997 50.2681 631.837 48.5317C632.706 46.7954 633.14 44.555 633.14 41.8104V1.39877Z" fill="white"/>
<path d="M697.118 52.7325V62.5624H664.562V52.7325H697.118ZM668.678 1.39877V62.5624H656.076V1.39877H668.678ZM692.875 26.3095V35.8873H664.562V26.3095H692.875ZM697.076 1.39877V11.2706H664.562V1.39877H697.076Z" fill="white"/>
<path d="M64.5873 178.325V192.502H1.82735V180.404L31.506 148.583C34.4886 145.264 36.841 142.345 38.5633 139.824C40.2857 137.262 41.5249 134.972 42.281 132.956C43.0792 130.898 43.4783 128.944 43.4783 127.096C43.4783 124.323 43.0162 121.95 42.092 119.975C41.1678 117.959 39.8026 116.405 37.9962 115.313C36.2319 114.22 34.0475 113.674 31.443 113.674C28.6704 113.674 26.276 114.346 24.2596 115.691C22.2852 117.035 20.7729 118.904 19.7227 121.299C18.7146 123.693 18.2105 126.403 18.2105 129.427H0C0 123.966 1.30225 118.967 3.90674 114.43C6.51124 109.852 10.1869 106.218 14.9338 103.529C19.6807 100.799 25.3098 99.4336 31.821 99.4336C38.2483 99.4336 43.6673 100.484 48.0781 102.584C52.531 104.643 55.8916 107.625 58.16 111.532C60.4705 115.397 61.6257 120.018 61.6257 125.395C61.6257 128.419 61.1426 131.381 60.1764 134.279C59.2102 137.136 57.824 139.992 56.0176 142.849C54.2533 145.663 52.1109 148.52 49.5904 151.418C47.0699 154.317 44.2764 157.321 41.2098 160.429L25.2678 178.325H64.5873Z" fill="white"/>
<path d="M137.681 138.564V154.443C137.681 161.332 136.946 167.276 135.476 172.275C134.005 177.232 131.884 181.307 129.112 184.5C126.381 187.65 123.125 189.982 119.345 191.494C115.564 193.006 111.363 193.763 106.742 193.763C103.046 193.763 99.6009 193.3 96.4083 192.376C93.2157 191.41 90.3382 189.919 87.7757 187.902C85.2552 185.886 83.0708 183.345 81.2224 180.278C79.4161 177.169 78.0298 173.473 77.0636 169.188C76.0975 164.903 75.6144 159.988 75.6144 154.443V138.564C75.6144 131.675 76.3495 125.773 77.8198 120.858C79.3321 115.901 81.4535 111.847 84.184 108.696C86.9565 105.546 90.2331 103.235 94.0139 101.765C97.7946 100.253 101.995 99.4966 106.616 99.4966C110.313 99.4966 113.737 99.9797 116.887 100.946C120.08 101.87 122.957 103.319 125.52 105.294C128.082 107.268 130.267 109.81 132.073 112.918C133.879 115.985 135.266 119.66 136.232 123.945C137.198 128.188 137.681 133.061 137.681 138.564ZM119.471 156.837V136.107C119.471 132.788 119.282 129.889 118.904 127.411C118.568 124.932 118.042 122.832 117.328 121.11C116.614 119.345 115.732 117.917 114.682 116.825C113.632 115.733 112.434 114.935 111.09 114.43C109.746 113.926 108.255 113.674 106.616 113.674C104.558 113.674 102.731 114.073 101.134 114.872C99.5799 115.67 98.2567 116.951 97.1645 118.715C96.0723 120.438 95.2321 122.748 94.644 125.647C94.0979 128.503 93.8248 131.99 93.8248 136.107V156.837C93.8248 160.156 93.9929 163.076 94.3289 165.596C94.707 168.117 95.2531 170.28 95.9672 172.086C96.7234 173.851 97.6055 175.3 98.6137 176.434C99.6639 177.526 100.861 178.325 102.205 178.829C103.592 179.333 105.104 179.585 106.742 179.585C108.759 179.585 110.544 179.186 112.098 178.388C113.695 177.547 115.039 176.245 116.131 174.481C117.265 172.675 118.105 170.322 118.652 167.424C119.198 164.525 119.471 160.996 119.471 156.837Z" fill="white"/>
<path d="M212.791 178.325V192.502H150.031V180.404L179.71 148.583C182.693 145.264 185.045 142.345 186.767 139.824C188.49 137.262 189.729 134.972 190.485 132.956C191.283 130.898 191.682 128.944 191.682 127.096C191.682 124.323 191.22 121.95 190.296 119.975C189.372 117.959 188.007 116.405 186.2 115.313C184.436 114.22 182.252 113.674 179.647 113.674C176.875 113.674 174.48 114.346 172.464 115.691C170.489 117.035 168.977 118.904 167.927 121.299C166.919 123.693 166.415 126.403 166.415 129.427H148.204C148.204 123.966 149.506 118.967 152.111 114.43C154.715 109.852 158.391 106.218 163.138 103.529C167.885 100.799 173.514 99.4336 180.025 99.4336C186.452 99.4336 191.871 100.484 196.282 102.584C200.735 104.643 204.096 107.625 206.364 111.532C208.675 115.397 209.83 120.018 209.83 125.395C209.83 128.419 209.347 131.381 208.381 134.279C207.414 137.136 206.028 139.992 204.222 142.849C202.457 145.663 200.315 148.52 197.795 151.418C195.274 154.317 192.481 157.321 189.414 160.429L173.472 178.325H212.791Z" fill="white"/>
<path d="M242.722 138.753H252.426C255.535 138.753 258.097 138.228 260.113 137.178C262.13 136.086 263.621 134.573 264.587 132.641C265.595 130.667 266.1 128.377 266.1 125.773C266.1 123.42 265.637 121.341 264.713 119.534C263.831 117.686 262.466 116.258 260.617 115.25C258.769 114.199 256.438 113.674 253.623 113.674C251.397 113.674 249.338 114.115 247.448 114.998C245.558 115.88 244.045 117.119 242.911 118.715C241.777 120.312 241.21 122.244 241.21 124.512H222.999C222.999 119.471 224.344 115.082 227.032 111.343C229.763 107.604 233.417 104.685 237.996 102.584C242.575 100.484 247.616 99.4336 253.119 99.4336C259.336 99.4336 264.776 100.442 269.439 102.458C274.102 104.433 277.736 107.352 280.34 111.217C282.945 115.082 284.247 119.87 284.247 125.584C284.247 128.482 283.575 131.297 282.231 134.027C280.886 136.716 278.954 139.152 276.434 141.337C273.955 143.479 270.93 145.201 267.36 146.504C263.789 147.764 259.777 148.394 255.325 148.394H242.722V138.753ZM242.722 152.553V143.164H255.325C260.323 143.164 264.713 143.731 268.494 144.865C272.275 145.999 275.446 147.638 278.009 149.78C280.571 151.881 282.504 154.38 283.806 157.279C285.108 160.135 285.759 163.307 285.759 166.793C285.759 171.078 284.94 174.901 283.302 178.262C281.664 181.58 279.353 184.395 276.371 186.705C273.43 189.016 269.985 190.78 266.037 191.998C262.088 193.174 257.782 193.763 253.119 193.763C249.254 193.763 245.453 193.237 241.714 192.187C238.017 191.095 234.657 189.478 231.632 187.335C228.649 185.151 226.255 182.42 224.449 179.144C222.684 175.825 221.802 171.897 221.802 167.36H240.013C240.013 169.713 240.601 171.813 241.777 173.662C242.953 175.51 244.57 176.959 246.629 178.01C248.729 179.06 251.061 179.585 253.623 179.585C256.522 179.585 259 179.06 261.059 178.01C263.159 176.917 264.755 175.405 265.848 173.473C266.982 171.498 267.549 169.209 267.549 166.604C267.549 163.244 266.94 160.555 265.721 158.539C264.503 156.48 262.76 154.968 260.491 154.002C258.223 153.036 255.535 152.553 252.426 152.553H242.722Z" fill="white"/>
<path d="M366.919 145.999V160.24H331.317V145.999H366.919Z" fill="white"/>
<path d="M476.181 178.325V192.502H413.422V180.404L443.1 148.583C446.083 145.264 448.435 142.345 450.158 139.824C451.88 137.262 453.119 134.972 453.875 132.956C454.673 130.898 455.072 128.944 455.072 127.096C455.072 124.323 454.61 121.95 453.686 119.975C452.762 117.959 451.397 116.405 449.59 115.313C447.826 114.22 445.642 113.674 443.037 113.674C440.265 113.674 437.87 114.346 435.854 115.691C433.879 117.035 432.367 118.904 431.317 121.299C430.309 123.693 429.805 126.403 429.805 129.427H411.594C411.594 123.966 412.896 118.967 415.501 114.43C418.105 109.852 421.781 106.218 426.528 103.529C431.275 100.799 436.904 99.4336 443.415 99.4336C449.842 99.4336 455.261 100.484 459.672 102.584C464.125 104.643 467.486 107.625 469.754 111.532C472.065 115.397 473.22 120.018 473.22 125.395C473.22 128.419 472.737 131.381 471.771 134.279C470.804 137.136 469.418 139.992 467.612 142.849C465.848 145.663 463.705 148.52 461.185 151.418C458.664 154.317 455.871 157.321 452.804 160.429L436.862 178.325H476.181Z" fill="white"/>
<path d="M549.275 138.564V154.443C549.275 161.332 548.54 167.276 547.07 172.275C545.6 177.232 543.478 181.307 540.706 184.5C537.975 187.65 534.72 189.982 530.939 191.494C527.158 193.006 522.957 193.763 518.336 193.763C514.64 193.763 511.195 193.3 508.003 192.376C504.81 191.41 501.932 189.919 499.37 187.902C496.849 185.886 494.665 183.345 492.817 180.278C491.01 177.169 489.624 173.473 488.658 169.188C487.692 164.903 487.209 159.988 487.209 154.443V138.564C487.209 131.675 487.944 125.773 489.414 120.858C490.926 115.901 493.048 111.847 495.778 108.696C498.551 105.546 501.827 103.235 505.608 101.765C509.389 100.253 513.59 99.4966 518.21 99.4966C521.907 99.4966 525.331 99.9797 528.481 100.946C531.674 101.87 534.552 103.319 537.114 105.294C539.677 107.268 541.861 109.81 543.667 112.918C545.474 115.985 546.86 119.66 547.826 123.945C548.792 128.188 549.275 133.061 549.275 138.564ZM531.065 156.837V136.107C531.065 132.788 530.876 129.889 530.498 127.411C530.162 124.932 529.637 122.832 528.922 121.11C528.208 119.345 527.326 117.917 526.276 116.825C525.226 115.733 524.029 114.935 522.684 114.43C521.34 113.926 519.849 113.674 518.21 113.674C516.152 113.674 514.325 114.073 512.728 114.872C511.174 115.67 509.851 116.951 508.759 118.715C507.666 120.438 506.826 122.748 506.238 125.647C505.692 128.503 505.419 131.99 505.419 136.107V156.837C505.419 160.156 505.587 163.076 505.923 165.596C506.301 168.117 506.847 170.28 507.561 172.086C508.318 173.851 509.2 175.3 510.208 176.434C511.258 177.526 512.455 178.325 513.8 178.829C515.186 179.333 516.698 179.585 518.336 179.585C520.353 179.585 522.138 179.186 523.693 178.388C525.289 177.547 526.633 176.245 527.725 174.481C528.859 172.675 529.7 170.322 530.246 167.424C530.792 164.525 531.065 160.996 531.065 156.837Z" fill="white"/>
<path d="M624.386 178.325V192.502H561.626V180.404L591.304 148.583C594.287 145.264 596.639 142.345 598.362 139.824C600.084 137.262 601.323 134.972 602.079 132.956C602.878 130.898 603.277 128.944 603.277 127.096C603.277 124.323 602.815 121.95 601.89 119.975C600.966 117.959 599.601 116.405 597.795 115.313C596.03 114.22 593.846 113.674 591.241 113.674C588.469 113.674 586.074 114.346 584.058 115.691C582.084 117.035 580.571 118.904 579.521 121.299C578.513 123.693 578.009 126.403 578.009 129.427H559.798C559.798 123.966 561.101 118.967 563.705 114.43C566.31 109.852 569.985 106.218 574.732 103.529C579.479 100.799 585.108 99.4336 591.619 99.4336C598.047 99.4336 603.466 100.484 607.876 102.584C612.329 104.643 615.69 107.625 617.958 111.532C620.269 115.397 621.424 120.018 621.424 125.395C621.424 128.419 620.941 131.381 619.975 134.279C619.009 137.136 617.622 139.992 615.816 142.849C614.052 145.663 611.909 148.52 609.389 151.418C606.868 154.317 604.075 157.321 601.008 160.429L585.066 178.325H624.386Z" fill="white"/>
<path d="M700 158.224V172.464H633.9L633.018 161.437L671.267 100.757H685.696L670.069 126.907L651.04 158.224H700ZM689.603 100.757V192.502H671.456V100.757H689.603Z" fill="white"/>
</svg>
