<svg width="17" height="19" viewBox="0 0 17 19" fill="none" xmlns="http://www.w3.org/2000/svg">
<path fill-rule="evenodd" clip-rule="evenodd" d="M7.5 0C3.35786 0 0 3.35786 0 7.5C0 11.6421 3.35786 15 7.5 15C8.91312 15 10.235 14.6092 11.3633 13.9297L14.7193 18.1247C15.0643 18.556 15.6936 18.6259 16.1249 18.2809C16.5561 17.9359 16.626 17.3066 16.281 16.8753L12.9243 12.6794C14.2103 11.3331 15 9.50878 15 7.5C15 3.35786 11.6421 0 7.5 0ZM11.2377 11.5348C12.3216 10.5302 13 9.09434 13 7.5C13 4.46243 10.5376 2 7.5 2C4.46243 2 2 4.46243 2 7.5C2 10.5376 4.46243 13 7.5 13C8.65665 13 9.72991 12.643 10.6156 12.0331C10.6778 11.9151 10.7647 11.8077 10.8755 11.7191C10.9859 11.6308 11.1094 11.5696 11.2377 11.5348Z" fill="#9CA3AF"/>
</svg>
