<svg width="29" height="30" viewBox="0 0 29 30" fill="none" xmlns="http://www.w3.org/2000/svg">
<path d="M28.8559 0.146629C28.6637 -0.0488764 28.353 -0.0488764 28.1608 0.146629L26.3388 2.00018H14.8946L0.507744 16.7561C0.180389 17.0891 0 17.5326 0 18.0037C0 18.4747 0.180389 18.9182 0.507744 19.2512L10.5673 29.4845C10.9049 29.828 11.3478 30 11.7916 30C12.2375 30 12.6833 29.8265 13.0249 29.4795L27.0338 14.8436V2.7072L28.8559 0.85365C29.048 0.658144 29.048 0.342135 28.8559 0.146629ZM26.0507 14.4375L12.3249 28.7775C12.032 29.0755 11.5552 29.0755 11.2623 28.7775L1.20276 18.5442C0.90981 18.2462 0.90981 17.7611 1.20423 17.4616L15.3046 3.00021H25.3557L22.9802 5.41678C22.5914 5.15478 22.1269 5.00027 21.627 5.00027C20.2719 5.00027 19.1694 6.1218 19.1694 7.50034C19.1694 8.87888 20.2719 10.0004 21.627 10.0004C22.9822 10.0004 24.0846 8.87888 24.0846 7.50034C24.0846 6.99183 23.9328 6.51931 23.6752 6.1238L26.0507 3.70723V14.4375ZM23.1016 7.50034C23.1016 8.32737 22.44 9.00039 21.627 9.00039C20.814 9.00039 20.1525 8.32737 20.1525 7.50034C20.1525 6.67332 20.814 6.0003 21.627 6.0003C21.8541 6.0003 22.0664 6.0573 22.2586 6.1508L21.2795 7.14683C21.0873 7.34234 21.0873 7.65835 21.2795 7.85385C21.3754 7.95136 21.5012 8.00036 21.627 8.00036C21.7529 8.00036 21.8787 7.95136 21.9745 7.85385L22.9536 6.85782C23.0461 7.05333 23.1016 7.26934 23.1016 7.50034Z" fill="white"/>
</svg>
