<svg width="29" height="20" viewBox="0 0 29 20" fill="none" xmlns="http://www.w3.org/2000/svg">
    <path fill-rule="evenodd" clip-rule="evenodd"
        d="M21.75 0C20.9492 0 20.3 0.497461 20.3 1.11111V16.2064L16.9753 13.6588C16.409 13.2249 15.491 13.2249 14.9247 13.6588C14.3584 14.0927 14.3584 14.7962 14.9247 15.2301L20.7247 19.6746C21.291 20.1085 22.209 20.1085 22.7753 19.6746L28.5753 15.2301C29.1416 14.7962 29.1416 14.0927 28.5753 13.6588C28.009 13.2249 27.091 13.2249 26.5247 13.6588L23.2 16.2064V1.11111C23.2 0.497461 22.5508 0 21.75 0ZM8.2753 0.325437C7.70904 -0.108479 6.79096 -0.108479 6.22469 0.325437L0.424694 4.76988C-0.141568 5.2038 -0.141568 5.90731 0.424694 6.34123C0.990954 6.77515 1.90904 6.77515 2.4753 6.34123L5.8 3.79357V18.8889C5.8 19.5025 6.44918 20 7.25 20C8.05081 20 8.7 19.5025 8.7 18.8889V3.79357L12.0247 6.34123C12.591 6.77515 13.509 6.77515 14.0753 6.34123C14.6416 5.90731 14.6416 5.2038 14.0753 4.76988L8.2753 0.325437Z"
        fill="white" />
</svg>