<svg width="700" height="104" viewBox="0 0 700 104" fill="none" xmlns="http://www.w3.org/2000/svg">
<path d="M359.644 17.7863H364.995C364.887 19.5398 364.404 21.0966 363.545 22.4565C362.698 23.8164 361.511 24.8781 359.984 25.6416C358.469 26.405 356.644 26.7868 354.509 26.7868C352.839 26.7868 351.342 26.5005 350.018 25.9279C348.694 25.3433 347.56 24.5083 346.618 23.4228C345.687 22.3372 344.978 21.025 344.489 19.4862C343.999 17.9473 343.755 16.2236 343.755 14.3149V12.5076C343.755 10.599 344.005 8.87524 344.506 7.33639C345.019 5.78561 345.747 4.46744 346.689 3.3819C347.644 2.29635 348.783 1.46131 350.107 0.876788C351.431 0.292263 352.91 0 354.545 0C356.716 0 358.547 0.39366 360.038 1.18098C361.541 1.9683 362.704 3.05385 363.527 4.43762C364.362 5.82139 364.863 7.39603 365.03 9.16154H359.662C359.603 8.11178 359.394 7.22306 359.036 6.49539C358.678 5.75578 358.135 5.20108 357.408 4.83128C356.692 4.44955 355.738 4.25868 354.545 4.25868C353.65 4.25868 352.869 4.42569 352.201 4.7597C351.533 5.09372 350.972 5.6007 350.519 6.28066C350.065 6.96062 349.725 7.81951 349.499 8.85734C349.284 9.88325 349.177 11.0881 349.177 12.4719V14.3149C349.177 15.6629 349.278 16.8498 349.481 17.8757C349.684 18.8897 349.994 19.7486 350.411 20.4524C350.841 21.1443 351.389 21.6692 352.058 22.0271C352.737 22.373 353.555 22.546 354.509 22.546C355.63 22.546 356.555 22.367 357.282 22.0092C358.01 21.6513 358.565 21.1204 358.947 20.4166C359.34 19.7128 359.573 18.836 359.644 17.7863Z" fill="white"/>
<path d="M385.894 10.9867V15.1738H372.295V10.9867H385.894ZM373.888 0.375766V26.4289H368.52V0.375766H373.888ZM389.724 0.375766V26.4289H384.373V0.375766H389.724Z" fill="white"/>
<path d="M405.309 4.83128L398.223 26.4289H392.515L402.195 0.375766H405.828L405.309 4.83128ZM411.196 26.4289L404.092 4.83128L403.52 0.375766H407.188L416.922 26.4289H411.196ZM410.874 16.7305V20.9355H397.114V16.7305H410.874Z" fill="white"/>
<path d="M421.789 0.375766H426.334L433.026 19.5041L439.718 0.375766H444.263L434.851 26.4289H431.201L421.789 0.375766ZM419.338 0.375766H423.865L424.688 19.0209V26.4289H419.338V0.375766ZM442.188 0.375766H446.733V26.4289H441.365V19.0209L442.188 0.375766Z" fill="white"/>
<path d="M461.584 17.1421H454.946V12.955H461.584C462.61 12.955 463.445 12.788 464.09 12.454C464.734 12.108 465.205 11.6309 465.503 11.0225C465.801 10.4141 465.95 9.72817 465.95 8.96471C465.95 8.18932 465.801 7.46761 465.503 6.79958C465.205 6.13155 464.734 5.59474 464.09 5.18915C463.445 4.78356 462.61 4.58077 461.584 4.58077H456.807V26.4289H451.439V0.375766H461.584C463.624 0.375766 465.372 0.745568 466.827 1.48517C468.295 2.21285 469.416 3.22085 470.191 4.50919C470.967 5.79753 471.354 7.27078 471.354 8.92892C471.354 10.6109 470.967 12.0663 470.191 13.295C469.416 14.5237 468.295 15.472 466.827 16.1401C465.372 16.8081 463.624 17.1421 461.584 17.1421Z" fill="white"/>
<path d="M480.766 0.375766V26.4289H475.416V0.375766H480.766Z" fill="white"/>
<path d="M507.195 12.7939V14.0286C507.195 16.0088 506.927 17.7863 506.39 19.3609C505.853 20.9355 505.096 22.2776 504.118 23.387C503.139 24.4844 501.97 25.3254 500.61 25.91C499.262 26.4945 497.765 26.7868 496.119 26.7868C494.485 26.7868 492.988 26.4945 491.628 25.91C490.28 25.3254 489.111 24.4844 488.121 23.387C487.131 22.2776 486.361 20.9355 485.812 19.3609C485.276 17.7863 485.007 16.0088 485.007 14.0286V12.7939C485.007 10.8018 485.276 9.02435 485.812 7.46164C486.349 5.887 487.107 4.54498 488.085 3.43558C489.075 2.32617 490.244 1.47921 491.592 0.894681C492.952 0.310156 494.449 0.0178936 496.083 0.0178936C497.73 0.0178936 499.227 0.310156 500.575 0.894681C501.935 1.47921 503.104 2.32617 504.082 3.43558C505.072 4.54498 505.835 5.887 506.372 7.46164C506.921 9.02435 507.195 10.8018 507.195 12.7939ZM501.774 14.0286V12.7582C501.774 11.3744 501.648 10.1576 501.398 9.10786C501.147 8.0581 500.777 7.17534 500.288 6.4596C499.799 5.74385 499.203 5.20705 498.499 4.84917C497.795 4.47937 496.99 4.29447 496.083 4.29447C495.177 4.29447 494.372 4.47937 493.668 4.84917C492.976 5.20705 492.385 5.74385 491.896 6.4596C491.419 7.17534 491.055 8.0581 490.805 9.10786C490.554 10.1576 490.429 11.3744 490.429 12.7582V14.0286C490.429 15.4004 490.554 16.6172 490.805 17.6789C491.055 18.7287 491.425 19.6174 491.914 20.3451C492.403 21.0608 493 21.6036 493.703 21.9734C494.407 22.3432 495.213 22.5281 496.119 22.5281C497.026 22.5281 497.831 22.3432 498.535 21.9734C499.239 21.6036 499.829 21.0608 500.306 20.3451C500.783 19.6174 501.147 18.7287 501.398 17.6789C501.648 16.6172 501.774 15.4004 501.774 14.0286Z" fill="white"/>
<path d="M532.264 0.375766V26.4289H526.896L516.428 8.96471V26.4289H511.06V0.375766H516.428L526.914 17.8578V0.375766H532.264Z" fill="white"/>
<path d="M550.498 19.6114C550.498 19.1462 550.426 18.7287 550.283 18.3589C550.152 17.9771 549.901 17.6312 549.532 17.321C549.162 16.9989 548.643 16.6828 547.975 16.3727C547.307 16.0625 546.442 15.7404 545.38 15.4064C544.199 15.0247 543.078 14.5952 542.016 14.1181C540.967 13.6409 540.036 13.0862 539.225 12.454C538.426 11.8098 537.793 11.0642 537.328 10.2173C536.875 9.3703 536.648 8.38615 536.648 7.26481C536.648 6.17927 536.887 5.19512 537.364 4.31236C537.841 3.41768 538.509 2.65422 539.368 2.02198C540.227 1.37781 541.241 0.882752 542.41 0.536809C543.591 0.190865 544.885 0.0178936 546.293 0.0178936C548.213 0.0178936 549.889 0.363837 551.321 1.05572C552.752 1.74761 553.862 2.69597 554.649 3.90081C555.448 5.10565 555.848 6.48346 555.848 8.03424H550.516C550.516 7.27078 550.355 6.60275 550.033 6.03015C549.722 5.44563 549.245 4.98636 548.601 4.65234C547.969 4.31833 547.17 4.15132 546.203 4.15132C545.273 4.15132 544.498 4.29447 543.877 4.58077C543.257 4.85514 542.792 5.2309 542.482 5.70807C542.171 6.1733 542.016 6.69818 542.016 7.28271C542.016 7.72408 542.124 8.12371 542.338 8.48158C542.565 8.83945 542.899 9.17347 543.34 9.48362C543.782 9.79378 544.325 10.086 544.969 10.3604C545.613 10.6348 546.358 10.9032 547.205 11.1656C548.625 11.5951 549.872 12.0782 550.945 12.615C552.031 13.1518 552.937 13.7542 553.665 14.4223C554.393 15.0903 554.941 15.8478 555.311 16.6948C555.681 17.5417 555.866 18.502 555.866 19.5756C555.866 20.7089 555.645 21.7229 555.204 22.6175C554.762 23.5122 554.124 24.2697 553.289 24.89C552.454 25.5103 551.458 25.9815 550.301 26.3036C549.144 26.6257 547.85 26.7868 546.418 26.7868C545.13 26.7868 543.859 26.6198 542.607 26.2857C541.354 25.9398 540.215 25.4209 539.189 24.729C538.175 24.0371 537.364 23.1544 536.756 22.0807C536.147 21.0071 535.843 19.7367 535.843 18.2694H541.229C541.229 19.0806 541.354 19.7665 541.605 20.3272C541.855 20.8878 542.207 21.3411 542.66 21.6871C543.126 22.033 543.674 22.2835 544.307 22.4386C544.951 22.5937 545.655 22.6712 546.418 22.6712C547.349 22.6712 548.112 22.54 548.708 22.2776C549.317 22.0151 549.764 21.6513 550.051 21.1861C550.349 20.7208 550.498 20.1959 550.498 19.6114Z" fill="white"/>
<path d="M585.39 22.2418V26.4289H572.274V22.2418H585.39ZM574.01 0.375766V26.4289H568.642V0.375766H574.01Z" fill="white"/>
<path d="M605.95 22.2418V26.4289H592.083V22.2418H605.95ZM593.836 0.375766V26.4289H588.468V0.375766H593.836ZM604.143 10.9867V15.0664H592.083V10.9867H604.143ZM605.932 0.375766V4.58077H592.083V0.375766H605.932Z" fill="white"/>
<path d="M619.675 4.83128L612.589 26.4289H606.881L616.561 0.375766H620.194L619.675 4.83128ZM625.562 26.4289L618.458 4.83128L617.885 0.375766H621.553L631.288 26.4289H625.562ZM625.24 16.7305V20.9355H611.479V16.7305H625.24Z" fill="white"/>
<path d="M654.03 12.8118V23.1365C653.625 23.6255 652.999 24.1564 652.152 24.729C651.305 25.2897 650.213 25.7728 648.877 26.1784C647.541 26.584 645.925 26.7868 644.028 26.7868C642.346 26.7868 640.813 26.5124 639.429 25.9636C638.045 25.403 636.853 24.5858 635.85 23.5122C634.86 22.4386 634.097 21.1264 633.56 19.5756C633.023 18.0129 632.755 16.2295 632.755 14.2254V12.5971C632.755 10.593 633.011 8.80963 633.524 7.24692C634.049 5.68421 634.795 4.36604 635.761 3.29243C636.727 2.21881 637.878 1.40167 639.214 0.841C640.551 0.280333 642.036 0 643.67 0C645.936 0 647.797 0.369802 649.253 1.1094C650.708 1.83708 651.818 2.85105 652.581 4.15132C653.356 5.43966 653.834 6.91887 654.012 8.58894H648.805C648.674 7.70619 648.424 6.93676 648.054 6.28066C647.684 5.62456 647.153 5.11161 646.461 4.74181C645.781 4.37201 644.899 4.18711 643.813 4.18711C642.918 4.18711 642.119 4.37201 641.415 4.74181C640.723 5.09968 640.139 5.63053 639.662 6.33434C639.185 7.03816 638.821 7.90898 638.57 8.94681C638.32 9.98464 638.195 11.1895 638.195 12.5613V14.2254C638.195 15.5853 638.326 16.7902 638.588 17.8399C638.851 18.8778 639.238 19.7546 639.751 20.4703C640.276 21.1741 640.92 21.705 641.684 22.0628C642.447 22.4207 643.336 22.5996 644.35 22.5996C645.197 22.5996 645.901 22.5281 646.461 22.3849C647.034 22.2418 647.493 22.0688 647.839 21.866C648.197 21.6513 648.471 21.4485 648.662 21.2576V16.6411H643.759V12.8118H654.03Z" fill="white"/>
<path d="M672.747 0.375766H678.097V17.5894C678.097 19.5935 677.668 21.2815 676.809 22.6533C675.962 24.0252 674.787 25.057 673.284 25.7489C671.793 26.4408 670.075 26.7868 668.131 26.7868C666.186 26.7868 664.456 26.4408 662.941 25.7489C661.438 25.057 660.257 24.0252 659.398 22.6533C658.552 21.2815 658.128 19.5935 658.128 17.5894V0.375766H663.496V17.5894C663.496 18.7585 663.681 19.7128 664.051 20.4524C664.421 21.192 664.951 21.7348 665.643 22.0807C666.347 22.4267 667.176 22.5996 668.131 22.5996C669.109 22.5996 669.938 22.4267 670.618 22.0807C671.31 21.7348 671.835 21.192 672.192 20.4524C672.562 19.7128 672.747 18.7585 672.747 17.5894V0.375766Z" fill="white"/>
<path d="M699.999 22.2418V26.4289H686.132V22.2418H699.999ZM687.885 0.375766V26.4289H682.517V0.375766H687.885ZM698.192 10.9867V15.0664H686.132V10.9867H698.192ZM699.981 0.375766V4.58077H686.132V0.375766H699.981Z" fill="white"/>
<path d="M377.019 95.6729V102.862H345.194V96.7273L360.244 80.5911C361.756 78.9082 362.949 77.4278 363.823 76.1496C364.696 74.8502 365.324 73.6893 365.708 72.6668C366.113 71.623 366.315 70.6324 366.315 69.6952C366.315 68.2892 366.081 67.0857 365.612 66.0845C365.143 65.062 364.451 64.2738 363.535 63.72C362.64 63.1661 361.533 62.8892 360.212 62.8892C358.806 62.8892 357.592 63.23 356.569 63.9117C355.568 64.5933 354.801 65.5413 354.269 66.7555C353.757 67.9697 353.502 69.3437 353.502 70.8774H344.267C344.267 68.1082 344.928 65.5732 346.248 63.2726C347.569 60.9507 349.433 59.1081 351.84 57.7448C354.247 56.3601 357.102 55.6678 360.404 55.6678C363.663 55.6678 366.411 56.2004 368.647 57.2655C370.905 58.3093 372.61 59.8217 373.76 61.8028C374.932 63.7626 375.517 66.1058 375.517 68.8324C375.517 70.3662 375.272 71.868 374.782 73.3378C374.292 74.7863 373.59 76.2349 372.674 77.6834C371.779 79.1106 370.692 80.5592 369.414 82.029C368.136 83.4988 366.72 85.0219 365.165 86.5982L357.081 95.6729H377.019Z" fill="white"/>
<path d="M414.085 75.5106V83.5627C414.085 87.0562 413.712 90.0705 412.966 92.6054C412.221 95.119 411.145 97.1853 409.739 98.8043C408.354 100.402 406.703 101.584 404.786 102.351C402.869 103.118 400.739 103.501 398.396 103.501C396.521 103.501 394.774 103.267 393.155 102.798C391.536 102.308 390.077 101.552 388.778 100.53C387.5 99.5072 386.392 98.2185 385.455 96.6634C384.539 95.0871 383.836 93.2125 383.346 91.0397C382.856 88.8669 382.611 86.3746 382.611 83.5627V75.5106C382.611 72.0171 382.984 69.0241 383.729 66.5318C384.496 64.0182 385.572 61.9626 386.956 60.3649C388.362 58.7673 390.024 57.5957 391.941 56.8501C393.858 56.0832 395.989 55.6998 398.332 55.6998C400.206 55.6998 401.942 55.9448 403.54 56.4347C405.159 56.9033 406.618 57.6383 407.918 58.6395C409.217 59.6406 410.325 60.9294 411.241 62.5058C412.157 64.0608 412.86 65.9247 413.35 68.0975C413.84 70.249 414.085 72.72 414.085 75.5106ZM404.85 84.7769V74.2644C404.85 72.5816 404.754 71.1117 404.563 69.8549C404.392 68.5981 404.126 67.533 403.764 66.6596C403.402 65.765 402.954 65.0407 402.422 64.4868C401.889 63.933 401.282 63.5283 400.6 63.2726C399.919 63.017 399.163 62.8892 398.332 62.8892C397.288 62.8892 396.361 63.0916 395.552 63.4963C394.764 63.901 394.093 64.5507 393.539 65.4454C392.985 66.3188 392.559 67.4904 392.261 68.9602C391.984 70.4088 391.845 72.1768 391.845 74.2644V84.7769C391.845 86.4598 391.93 87.9403 392.101 89.2184C392.293 90.4965 392.57 91.5936 392.932 92.5095C393.315 93.4042 393.762 94.1391 394.274 94.7143C394.806 95.2681 395.413 95.6729 396.095 95.9285C396.798 96.1841 397.565 96.3119 398.396 96.3119C399.418 96.3119 400.323 96.1096 401.112 95.7048C401.921 95.2788 402.603 94.6184 403.157 93.7237C403.732 92.8078 404.158 91.6149 404.435 90.145C404.712 88.6752 404.85 86.8858 404.85 84.7769Z" fill="white"/>
<path d="M452.172 95.6729V102.862H420.347V96.7273L435.397 80.5911C436.91 78.9082 438.102 77.4278 438.976 76.1496C439.849 74.8502 440.478 73.6893 440.861 72.6668C441.266 71.623 441.468 70.6324 441.468 69.6952C441.468 68.2892 441.234 67.0857 440.765 66.0845C440.297 65.062 439.604 64.2738 438.688 63.72C437.794 63.1661 436.686 62.8892 435.365 62.8892C433.959 62.8892 432.745 63.23 431.723 63.9117C430.721 64.5933 429.954 65.5413 429.422 66.7555C428.911 67.9697 428.655 69.3437 428.655 70.8774H419.421C419.421 68.1082 420.081 65.5732 421.402 63.2726C422.722 60.9507 424.586 59.1081 426.993 57.7448C429.401 56.3601 432.255 55.6678 435.557 55.6678C438.816 55.6678 441.564 56.2004 443.801 57.2655C446.059 58.3093 447.763 59.8217 448.913 61.8028C450.085 63.7626 450.671 66.1058 450.671 68.8324C450.671 70.3662 450.426 71.868 449.936 73.3378C449.446 74.7863 448.743 76.2349 447.827 77.6834C446.932 79.1106 445.846 80.5592 444.568 82.029C443.289 83.4988 441.873 85.0219 440.318 86.5982L432.234 95.6729H452.172Z" fill="white"/>
<path d="M467.35 75.6064H472.271C473.847 75.6064 475.147 75.3402 476.169 74.8076C477.191 74.2538 477.948 73.4869 478.438 72.507C478.949 71.5058 479.205 70.3449 479.205 69.0241C479.205 67.8312 478.97 66.7768 478.502 65.8608C478.054 64.9235 477.362 64.1993 476.425 63.688C475.487 63.1555 474.305 62.8892 472.878 62.8892C471.749 62.8892 470.705 63.1129 469.746 63.5602C468.788 64.0075 468.021 64.6359 467.446 65.4454C466.871 66.2549 466.583 67.2348 466.583 68.3851H457.349C457.349 65.8289 458.03 63.6028 459.394 61.7069C460.778 59.8111 462.632 58.3306 464.954 57.2655C467.275 56.2004 469.832 55.6678 472.622 55.6678C475.775 55.6678 478.534 56.1791 480.898 57.2016C483.263 58.2028 485.105 59.6833 486.426 61.643C487.747 63.6028 488.407 66.0312 488.407 68.9283C488.407 70.3981 488.066 71.8254 487.384 73.21C486.703 74.5733 485.723 75.8088 484.445 76.9165C483.188 78.0029 481.654 78.8763 479.844 79.5367C478.033 80.1757 475.999 80.4952 473.741 80.4952H467.35V75.6064ZM467.35 82.6041V77.8431H473.741C476.276 77.8431 478.502 78.1307 480.419 78.7059C482.336 79.281 483.944 80.1118 485.244 81.1982C486.543 82.2633 487.523 83.5308 488.183 85.0006C488.844 86.4491 489.174 88.0574 489.174 89.8255C489.174 91.9983 488.758 93.9368 487.928 95.6409C487.097 97.3238 485.925 98.751 484.413 99.9226C482.922 101.094 481.175 101.989 479.173 102.607C477.17 103.203 474.987 103.501 472.622 103.501C470.662 103.501 468.735 103.235 466.839 102.703C464.964 102.149 463.26 101.329 461.726 100.242C460.214 99.1344 459 97.7498 458.084 96.0883C457.189 94.4054 456.742 92.4137 456.742 90.1131H465.976C465.976 91.306 466.274 92.3711 466.871 93.3084C467.467 94.2456 468.287 94.9806 469.331 95.5131C470.396 96.0457 471.578 96.3119 472.878 96.3119C474.348 96.3119 475.605 96.0457 476.648 95.5131C477.713 94.9593 478.523 94.1924 479.077 93.2125C479.652 92.2113 479.939 91.0503 479.939 89.7296C479.939 88.0255 479.631 86.6621 479.013 85.6397C478.395 84.5959 477.511 83.829 476.361 83.3391C475.21 82.8491 473.847 82.6041 472.271 82.6041H467.35Z" fill="white"/>
<path d="M530.329 79.281V86.5024H512.276V79.281H530.329Z" fill="white"/>
<path d="M585.736 95.6729V102.862H553.91V96.7273L568.96 80.5911C570.473 78.9082 571.666 77.4278 572.539 76.1496C573.412 74.8502 574.041 73.6893 574.424 72.6668C574.829 71.623 575.031 70.6324 575.031 69.6952C575.031 68.2892 574.797 67.0857 574.328 66.0845C573.86 65.062 573.167 64.2738 572.251 63.72C571.357 63.1661 570.249 62.8892 568.928 62.8892C567.522 62.8892 566.308 63.23 565.286 63.9117C564.284 64.5933 563.518 65.5413 562.985 66.7555C562.474 67.9697 562.218 69.3437 562.218 70.8774H552.984C552.984 68.1082 553.644 65.5732 554.965 63.2726C556.286 60.9507 558.15 59.1081 560.557 57.7448C562.964 56.3601 565.818 55.6678 569.12 55.6678C572.379 55.6678 575.127 56.2004 577.364 57.2655C579.622 58.3093 581.326 59.8217 582.476 61.8028C583.648 63.7626 584.234 66.1058 584.234 68.8324C584.234 70.3662 583.989 71.868 583.499 73.3378C583.009 74.7863 582.306 76.2349 581.39 77.6834C580.495 79.1106 579.409 80.5592 578.131 82.029C576.853 83.4988 575.436 85.0219 573.881 86.5982L565.797 95.6729H585.736Z" fill="white"/>
<path d="M622.801 75.5106V83.5627C622.801 87.0562 622.428 90.0705 621.683 92.6054C620.937 95.119 619.861 97.1853 618.455 98.8043C617.071 100.402 615.42 101.584 613.503 102.351C611.585 103.118 609.455 103.501 607.112 103.501C605.237 103.501 603.491 103.267 601.872 102.798C600.253 102.308 598.794 101.552 597.494 100.53C596.216 99.5072 595.108 98.2185 594.171 96.6634C593.255 95.0871 592.552 93.2125 592.062 91.0397C591.572 88.8669 591.327 86.3746 591.327 83.5627V75.5106C591.327 72.0171 591.7 69.0241 592.446 66.5318C593.212 64.0182 594.288 61.9626 595.673 60.3649C597.079 58.7673 598.74 57.5957 600.658 56.8501C602.575 56.0832 604.705 55.6998 607.048 55.6998C608.923 55.6998 610.659 55.9448 612.256 56.4347C613.875 56.9033 615.335 57.6383 616.634 58.6395C617.933 59.6406 619.041 60.9294 619.957 62.5058C620.873 64.0608 621.576 65.9247 622.066 68.0975C622.556 70.249 622.801 72.72 622.801 75.5106ZM613.566 84.7769V74.2644C613.566 72.5816 613.471 71.1117 613.279 69.8549C613.109 68.5981 612.842 67.533 612.48 66.6596C612.118 65.765 611.671 65.0407 611.138 64.4868C610.606 63.933 609.998 63.5283 609.317 63.2726C608.635 63.017 607.879 62.8892 607.048 62.8892C606.004 62.8892 605.078 63.0916 604.268 63.4963C603.48 63.901 602.809 64.5507 602.255 65.4454C601.701 66.3188 601.275 67.4904 600.977 68.9602C600.7 70.4088 600.562 72.1768 600.562 74.2644V84.7769C600.562 86.4598 600.647 87.9403 600.817 89.2184C601.009 90.4965 601.286 91.5936 601.648 92.5095C602.031 93.4042 602.479 94.1391 602.99 94.7143C603.523 95.2681 604.13 95.6729 604.811 95.9285C605.514 96.1841 606.281 96.3119 607.112 96.3119C608.135 96.3119 609.04 96.1096 609.828 95.7048C610.637 95.2788 611.319 94.6184 611.873 93.7237C612.448 92.8078 612.874 91.6149 613.151 90.145C613.428 88.6752 613.566 86.8858 613.566 84.7769Z" fill="white"/>
<path d="M660.889 95.6729V102.862H629.064V96.7273L644.113 80.5911C645.626 78.9082 646.819 77.4278 647.692 76.1496C648.566 74.8502 649.194 73.6893 649.577 72.6668C649.982 71.623 650.185 70.6324 650.185 69.6952C650.185 68.2892 649.95 67.0857 649.482 66.0845C649.013 65.062 648.321 64.2738 647.405 63.72C646.51 63.1661 645.402 62.8892 644.082 62.8892C642.676 62.8892 641.461 63.23 640.439 63.9117C639.438 64.5933 638.671 65.5413 638.138 66.7555C637.627 67.9697 637.371 69.3437 637.371 70.8774H628.137C628.137 68.1082 628.797 65.5732 630.118 63.2726C631.439 60.9507 633.303 59.1081 635.71 57.7448C638.117 56.3601 640.971 55.6678 644.273 55.6678C647.532 55.6678 650.28 56.2004 652.517 57.2655C654.775 58.3093 656.479 59.8217 657.63 61.8028C658.801 63.7626 659.387 66.1058 659.387 68.8324C659.387 70.3662 659.142 71.868 658.652 73.3378C658.162 74.7863 657.459 76.2349 656.543 77.6834C655.648 79.1106 654.562 80.5592 653.284 82.029C652.006 83.4988 650.589 85.0219 649.034 86.5982L640.95 95.6729H660.889Z" fill="white"/>
<path d="M699.232 85.4799V92.7012H665.714L665.266 87.1095L684.662 56.3388H691.979L684.055 69.5993L674.405 85.4799H699.232ZM693.96 56.3388V102.862H684.758V56.3388H693.96Z" fill="white"/>
<path d="M56.3879 1.84814H77.0244V68.2437C77.0244 75.9738 75.368 82.4845 72.0551 87.7759C68.7882 93.0673 64.256 97.0473 58.4585 99.716C52.707 102.385 46.0812 103.719 38.5812 103.719C31.0812 103.719 24.4095 102.385 18.5659 99.716C12.7684 97.0473 8.21317 93.0673 4.9003 87.7759C1.63343 82.4845 0 75.9738 0 68.2437V1.84814H20.7055V68.2437C20.7055 72.7529 21.4187 76.4339 22.845 79.2866C24.2714 82.1394 26.319 84.233 28.9877 85.5673C31.7024 86.9017 34.9002 87.5688 38.5812 87.5688C42.3542 87.5688 45.5521 86.9017 48.1748 85.5673C50.8435 84.233 52.868 82.1394 54.2484 79.2866C55.6747 76.4339 56.3879 72.7529 56.3879 68.2437V1.84814Z" fill="white"/>
<path d="M161.503 86.1885V102.339H108.014V86.1885H161.503ZM114.777 1.84814V102.339H94.0719V1.84814H114.777ZM154.532 42.776V58.5121H108.014V42.776H154.532ZM161.434 1.84814V18.0674H108.014V1.84814H161.434Z" fill="white"/>
<path d="M194.286 1.84814V102.339H173.581V1.84814H194.286ZM234.317 44.7775V60.9278H188.627V44.7775H234.317ZM239.148 1.84814V18.0674H188.627V1.84814H239.148Z" fill="white"/>
<path d="M279.317 19.0337L251.986 102.339H229.969L267.308 1.84814H281.318L279.317 19.0337ZM302.024 102.339L274.624 19.0337L272.415 1.84814H286.564L324.11 102.339H302.024ZM300.782 64.9308V81.1501H247.707V64.9308H300.782Z" fill="white"/>
</svg>
