<svg width="70" height="70" viewBox="0 0 70 70" fill="none" xmlns="http://www.w3.org/2000/svg">
<path d="M60.4758 7.51758L38.0059 24.2761L42.1611 14.3888L60.4758 7.51758Z" fill="#E2761B"/>
<path d="M8.60362 7.51758L30.8929 24.4349L26.9409 14.3888L8.60362 7.51758ZM52.3917 46.3638L46.4073 55.5708L59.2117 59.1085L62.8927 46.5679L52.3917 46.3638ZM6.23242 46.5679L9.89084 59.1085L22.6953 55.5708L16.7109 46.3638L6.23242 46.5679Z" fill="#E4761B"/>
<path d="M21.9724 30.8072L18.4043 36.2271L31.1184 36.794L30.6668 23.0743L21.9724 30.8072ZM47.1071 30.8072L38.2998 22.9155L38.0062 36.794L50.6977 36.2271L47.1071 30.8072ZM22.695 55.5709L30.328 51.8291L23.7338 46.6587L22.695 55.5709ZM38.7514 51.8291L46.407 55.5709L45.3456 46.6587L38.7514 51.8291Z" fill="#E4761B"/>
<path d="M46.4073 55.5709L38.7517 51.8291L39.3614 56.8408L39.2937 58.9498L46.4073 55.5709ZM22.6953 55.5709L29.8089 58.9498L29.7637 56.8408L30.3283 51.8291L22.6953 55.5709Z" fill="#D7C1B3"/>
<path d="M29.9211 43.3477L23.5527 41.4655L28.0467 39.4019L29.9211 43.3477ZM39.1575 43.3477L41.0318 39.4019L45.5484 41.4655L39.1575 43.3477Z" fill="#233447"/>
<path d="M22.6954 55.5708L23.7794 46.3638L16.7109 46.5679L22.6954 55.5708ZM45.3234 46.3638L46.4074 55.5708L52.3918 46.5679L45.3234 46.3638ZM50.6981 36.2271L38.0065 36.794L39.1808 43.3477L41.0552 39.4019L45.5718 41.4655L50.6981 36.2271ZM23.5535 41.4655L28.0701 39.4019L29.9219 43.3477L31.1188 36.794L18.4046 36.2271L23.5535 41.4655Z" fill="#CD6116"/>
<path d="M18.4043 36.2271L23.7338 46.6586L23.5532 41.4655L18.4043 36.2271ZM45.5714 41.4655L45.3456 46.6586L50.6977 36.2271L45.5714 41.4655ZM31.1184 36.794L29.9215 43.3477L31.412 51.0807L31.7507 40.8986L31.1184 36.794ZM38.0062 36.794L37.3964 40.8759L37.6674 51.0807L39.1805 43.3477L38.0062 36.794Z" fill="#E4751F"/>
<path d="M39.1801 43.348L37.667 51.081L38.751 51.8294L45.3452 46.6589L45.571 41.4658L39.1801 43.348ZM23.5527 41.4658L23.7334 46.6589L30.3276 51.8294L31.4116 51.081L29.9211 43.348L23.5527 41.4658Z" fill="#F6851B"/>
<path d="M39.2937 58.9497L39.3614 56.8407L38.7969 56.3418H30.2831L29.7637 56.8407L29.8089 58.9497L22.6953 55.5708L25.1794 57.6118L30.2154 61.1267H38.8646L43.9232 57.6118L46.4073 55.5708L39.2937 58.9497Z" fill="#C0AD9E"/>
<path d="M38.7516 51.8289L37.6677 51.0806H31.4122L30.3282 51.8289L29.7637 56.8406L30.2831 56.3417H38.7968L39.3614 56.8406L38.7516 51.8289Z" fill="#161616"/>
<path d="M61.4245 25.3646L63.344 16.1123L60.476 7.51758L38.7513 23.7092L47.107 30.8072L58.9178 34.2768L61.5374 31.2154L60.4082 30.399L62.2149 28.7435L60.8147 27.655L62.6214 26.2717L61.4245 25.3646ZM5.75781 16.1123L7.67735 25.3646L6.45788 26.2717L8.26451 27.655L6.88695 28.7435L8.69358 30.399L7.56444 31.2154L10.1615 34.2768L21.9723 30.8072L30.3279 23.7092L8.60325 7.51758L5.75781 16.1123Z" fill="#763D16"/>
<path d="M58.9182 34.2767L47.1073 30.807L50.698 36.2269L45.3459 46.6585L52.3917 46.5678H62.8927L58.9182 34.2767ZM21.9727 30.807L10.1618 34.2767L6.23242 46.5678H16.7109L23.7341 46.6585L18.4046 36.2269L21.9727 30.807ZM38.0065 36.7939L38.7517 23.709L42.1843 14.3887H26.9409L30.3283 23.709L31.1187 36.7939L31.3897 40.9211L31.4123 51.0806H37.6677L37.7129 40.9211L38.0065 36.7939Z" fill="#F6851B"/>
</svg>
