<svg width="450" height="594" viewBox="0 0 450 594" fill="none" xmlns="http://www.w3.org/2000/svg">
    <path
        d="M420.827 585.431H29.1708L8.33594 562.034V31.124L29.1708 7.83496H420.827L441.662 31.2317V562.034L420.827 585.431ZM31.8452 578.7H418.396L435.706 559.261V33.8972L418.396 14.4582H31.8452L14.5355 33.8972V559.261L31.8452 578.7Z"
        fill="url(#paint0_linear_1870_1908)" />
    <path
        d="M323.604 23.3968H409.375L428.872 44.9896V274.784L448.565 296.592L428.872 318.374V548.195L409.375 569.788H339.552L318.426 593.185H429.918L449.999 570.919V298.208V294.977V22.266L429.918 0H318.426L323.604 23.3968Z"
        fill="url(#paint1_linear_1870_1908)" />
    <path
        d="M110.447 569.788H40.6243L21.1266 548.195V318.374L1.45868 296.592L21.1266 274.784V44.9896L40.6243 23.3968H126.152L131.573 0H20.1055L0 22.266V294.977V298.208V570.919L20.1055 593.185H131.573L110.447 569.788Z"
        fill="url(#paint2_linear_1870_1908)" />
    <path
        d="M429.77 0H20.0984H6C2.68629 0 0 2.68629 0 6V22.2478V296.351L20.0984 274.103V44.4956L40.1968 22.2478H125.086L134.565 32.7126H201.737H247.864H315.037L324.515 22.2478H409.672L429.77 44.4956V274.103L449.845 296.351L429.77 318.599V548.206L409.672 570.454H339.874L319.776 592.701H429.77H443.845C447.158 592.701 449.845 590.015 449.845 586.701V570.454V296.351V22.2478V6.00001C449.845 2.6863 447.158 0 443.845 0H429.77Z"
        fill="#24C3BC" />
    <path
        d="M20.1055 593.185H130.139L110.033 570.919H40.211L20.1055 548.653V318.858L0 296.592V570.919V587.185C0 590.498 2.6863 593.185 6.00001 593.185H20.1055Z"
        fill="#24C3BC" />
    <path style="mix-blend-mode:lighten" opacity="0.8" d="M441.325 19.407L427.468 4.0874H21.711L7.85352 19.407H441.325Z"
        fill="url(#paint3_linear_1870_1908)" />
    <path d="M429.926 570.918V548.652L409.82 570.918H429.926Z" fill="url(#paint4_linear_1870_1908)" />
    <path d="M429.926 22.2671V44.5331L409.82 22.2671H429.926Z" fill="url(#paint5_linear_1870_1908)" />
    <path d="M20.0996 22.2671V44.5331L40.2051 22.2671H20.0996Z" fill="url(#paint6_linear_1870_1908)" />
    <path d="M20.0996 570.918V548.652L40.2051 570.918H20.0996Z" fill="url(#paint7_linear_1870_1908)" />
    <path d="M371.502 15.1045H367.199L370.506 18.7661H374.809L371.502 15.1045Z" fill="url(#paint8_linear_1870_1908)" />
    <path d="M360.053 15.1045L363.359 18.7661H367.662L364.356 15.1045H360.053Z" fill="url(#paint9_linear_1870_1908)" />
    <path d="M352.91 15.1045L356.217 18.7661H360.52L357.213 15.1045H352.91Z" fill="url(#paint10_linear_1870_1908)" />
    <path d="M345.758 15.1045L349.064 18.7661H353.367L350.061 15.1045H345.758Z" fill="url(#paint11_linear_1870_1908)" />
    <path d="M338.609 15.1045L341.916 18.7661H346.219L342.913 15.1045H338.609Z" fill="url(#paint12_linear_1870_1908)" />
    <path d="M371.502 578H367.199L370.506 574.338H374.809L371.502 578Z" fill="url(#paint13_linear_1870_1908)" />
    <path d="M360.053 578L363.359 574.338H367.662L364.356 578H360.053Z" fill="url(#paint14_linear_1870_1908)" />
    <path d="M352.91 578L356.217 574.338H360.52L357.213 578H352.91Z" fill="url(#paint15_linear_1870_1908)" />
    <path d="M345.758 578L349.064 574.338H353.367L350.061 578H345.758Z" fill="url(#paint16_linear_1870_1908)" />
    <path d="M338.609 578L341.916 574.338H346.219L342.913 578H338.609Z" fill="url(#paint17_linear_1870_1908)" />
    <path d="M78.5056 578.081H82.8087L79.5023 574.419H75.1992L78.5056 578.081Z" fill="url(#paint18_linear_1870_1908)" />
    <path d="M89.9493 578.081L86.6673 574.419H82.3398L85.6462 578.081H89.9493Z" fill="url(#paint19_linear_1870_1908)" />
    <path d="M97.1016 578.081L93.8196 574.419H89.4922L92.7985 578.081H97.1016Z" fill="url(#paint20_linear_1870_1908)" />
    <path d="M104.244 578.081L100.962 574.419H96.6348L99.9411 578.081H104.244Z" fill="url(#paint21_linear_1870_1908)" />
    <path d="M111.414 578.081L108.108 574.419H103.805L107.087 578.081H111.414Z" fill="url(#paint22_linear_1870_1908)" />
    <path d="M78.5056 15.1851H82.8087L79.5023 18.8198H75.1992L78.5056 15.1851Z" fill="url(#paint23_linear_1870_1908)" />
    <path d="M89.9493 15.1851L86.6673 18.8198H82.3398L85.6462 15.1851H89.9493Z" fill="url(#paint24_linear_1870_1908)" />
    <path d="M97.1016 15.1851L93.8196 18.8198H89.4922L92.7985 15.1851H97.1016Z" fill="url(#paint25_linear_1870_1908)" />
    <path d="M104.244 15.1851L100.962 18.8198H96.6348L99.9411 15.1851H104.244Z" fill="url(#paint26_linear_1870_1908)" />
    <path d="M111.414 15.1851L108.108 18.8198H103.805L107.087 15.1851H111.414Z" fill="url(#paint27_linear_1870_1908)" />
    <defs>
        <linearGradient id="paint0_linear_1870_1908" x1="224.999" y1="290.185" x2="224.999" y2="618.17"
            gradientUnits="userSpaceOnUse">
            <stop stop-color="#5E56EF" />
            <stop offset="1" stop-color="#342EAF" />
        </linearGradient>
        <linearGradient id="paint1_linear_1870_1908" x1="256.116" y1="536.537" x2="543.118" y2="77.8792"
            gradientUnits="userSpaceOnUse">
            <stop stop-color="#342EAF" />
            <stop offset="0.5" stop-color="#5E56EF" />
            <stop offset="1" stop-color="#342EAF" />
        </linearGradient>
        <linearGradient id="paint2_linear_1870_1908" x1="193.883" y1="56.6207" x2="-93.1193" y2="515.279"
            gradientUnits="userSpaceOnUse">
            <stop stop-color="#342EAF" />
            <stop offset="0.5" stop-color="#5E56EF" />
            <stop offset="1" stop-color="#342EAF" />
        </linearGradient>
        <linearGradient id="paint3_linear_1870_1908" x1="224.589" y1="3.36046" x2="224.589" y2="17.1454"
            gradientUnits="userSpaceOnUse">
            <stop stop-color="#5E56EF" />
            <stop offset="0.37" stop-color="#3C34A6" stop-opacity="0.58" />
            <stop offset="0.68" stop-color="#231B70" stop-opacity="0.27" />
            <stop offset="0.89" stop-color="#130B4F" stop-opacity="0.07" />
            <stop offset="1" stop-color="#0D0542" stop-opacity="0" />
        </linearGradient>
        <linearGradient id="paint4_linear_1870_1908" x1="414.853" y1="576.464" x2="437.003" y2="556.463"
            gradientUnits="userSpaceOnUse">
            <stop stop-color="#FFDB76" />
            <stop offset="1" stop-color="#FFAA4D" />
        </linearGradient>
        <linearGradient id="paint5_linear_1870_1908" x1="414.853" y1="16.6939" x2="437.003" y2="36.6951"
            gradientUnits="userSpaceOnUse">
            <stop stop-color="#FFDB76" />
            <stop offset="1" stop-color="#FFAA4D" />
        </linearGradient>
        <linearGradient id="paint6_linear_1870_1908" x1="35.1727" y1="16.6939" x2="13.0222" y2="36.6951"
            gradientUnits="userSpaceOnUse">
            <stop stop-color="#FFDB76" />
            <stop offset="1" stop-color="#FFAA4D" />
        </linearGradient>
        <linearGradient id="paint7_linear_1870_1908" x1="35.1727" y1="576.491" x2="13.0222" y2="556.49"
            gradientUnits="userSpaceOnUse">
            <stop stop-color="#FFDB76" />
            <stop offset="1" stop-color="#FFAA4D" />
        </linearGradient>
        <linearGradient id="paint8_linear_1870_1908" x1="374.93" y1="16.6661" x2="341.845" y2="18.4454"
            gradientUnits="userSpaceOnUse">
            <stop stop-color="#FF88C7" />
            <stop offset="1" stop-color="#F746A3" />
        </linearGradient>
        <linearGradient id="paint9_linear_1870_1908" x1="374.907" y1="16.2084" x2="341.822" y2="17.9877"
            gradientUnits="userSpaceOnUse">
            <stop stop-color="#FF88C7" />
            <stop offset="1" stop-color="#F746A3" />
        </linearGradient>
        <linearGradient id="paint10_linear_1870_1908" x1="374.888" y1="15.7237" x2="341.803" y2="17.503"
            gradientUnits="userSpaceOnUse">
            <stop stop-color="#FF88C7" />
            <stop offset="1" stop-color="#F746A3" />
        </linearGradient>
        <linearGradient id="paint11_linear_1870_1908" x1="374.859" y1="15.266" x2="341.749" y2="17.0454"
            gradientUnits="userSpaceOnUse">
            <stop stop-color="#FF88C7" />
            <stop offset="1" stop-color="#F746A3" />
        </linearGradient>
        <linearGradient id="paint12_linear_1870_1908" x1="374.833" y1="14.8083" x2="341.724" y2="16.5657"
            gradientUnits="userSpaceOnUse">
            <stop stop-color="#FF88C7" />
            <stop offset="1" stop-color="#F746A3" />
        </linearGradient>
        <linearGradient id="paint13_linear_1870_1908" x1="374.906" y1="576.438" x2="341.821" y2="574.659"
            gradientUnits="userSpaceOnUse">
            <stop stop-color="#FF88C7" />
            <stop offset="1" stop-color="#F746A3" />
        </linearGradient>
        <linearGradient id="paint14_linear_1870_1908" x1="374.883" y1="576.896" x2="341.798" y2="575.117"
            gradientUnits="userSpaceOnUse">
            <stop stop-color="#FF88C7" />
            <stop offset="1" stop-color="#F746A3" />
        </linearGradient>
        <linearGradient id="paint15_linear_1870_1908" x1="374.863" y1="577.354" x2="341.779" y2="575.596"
            gradientUnits="userSpaceOnUse">
            <stop stop-color="#FF88C7" />
            <stop offset="1" stop-color="#F746A3" />
        </linearGradient>
        <linearGradient id="paint16_linear_1870_1908" x1="374.834" y1="577.838" x2="341.749" y2="576.059"
            gradientUnits="userSpaceOnUse">
            <stop stop-color="#FF88C7" />
            <stop offset="1" stop-color="#F746A3" />
        </linearGradient>
        <linearGradient id="paint17_linear_1870_1908" x1="374.809" y1="578.296" x2="341.724" y2="576.517"
            gradientUnits="userSpaceOnUse">
            <stop stop-color="#FF88C7" />
            <stop offset="1" stop-color="#F746A3" />
        </linearGradient>
        <linearGradient id="paint18_linear_1870_1908" x1="75.102" y1="576.492" x2="108.187" y2="574.713"
            gradientUnits="userSpaceOnUse">
            <stop stop-color="#FF88C7" />
            <stop offset="1" stop-color="#F746A3" />
        </linearGradient>
        <linearGradient id="paint19_linear_1870_1908" x1="75.1194" y1="576.95" x2="108.204" y2="575.17"
            gradientUnits="userSpaceOnUse">
            <stop stop-color="#FF88C7" />
            <stop offset="1" stop-color="#F746A3" />
        </linearGradient>
        <linearGradient id="paint20_linear_1870_1908" x1="75.1485" y1="577.434" x2="108.234" y2="575.655"
            gradientUnits="userSpaceOnUse">
            <stop stop-color="#FF88C7" />
            <stop offset="1" stop-color="#F746A3" />
        </linearGradient>
        <linearGradient id="paint21_linear_1870_1908" x1="75.1678" y1="577.892" x2="108.253" y2="576.113"
            gradientUnits="userSpaceOnUse">
            <stop stop-color="#FF88C7" />
            <stop offset="1" stop-color="#F746A3" />
        </linearGradient>
        <linearGradient id="paint22_linear_1870_1908" x1="75.1902" y1="578.35" x2="108.275" y2="576.593"
            gradientUnits="userSpaceOnUse">
            <stop stop-color="#FF88C7" />
            <stop offset="1" stop-color="#F746A3" />
        </linearGradient>
        <linearGradient id="paint23_linear_1870_1908" x1="75.102" y1="16.7466" x2="108.187" y2="18.526"
            gradientUnits="userSpaceOnUse">
            <stop stop-color="#FF88C7" />
            <stop offset="1" stop-color="#F746A3" />
        </linearGradient>
        <linearGradient id="paint24_linear_1870_1908" x1="75.1194" y1="16.2889" x2="108.204" y2="18.0682"
            gradientUnits="userSpaceOnUse">
            <stop stop-color="#FF88C7" />
            <stop offset="1" stop-color="#F746A3" />
        </linearGradient>
        <linearGradient id="paint25_linear_1870_1908" x1="75.1485" y1="15.8312" x2="108.257" y2="17.5885"
            gradientUnits="userSpaceOnUse">
            <stop stop-color="#FF88C7" />
            <stop offset="1" stop-color="#F746A3" />
        </linearGradient>
        <linearGradient id="paint26_linear_1870_1908" x1="75.1678" y1="15.3466" x2="108.277" y2="17.1259"
            gradientUnits="userSpaceOnUse">
            <stop stop-color="#FF88C7" />
            <stop offset="1" stop-color="#F746A3" />
        </linearGradient>
        <linearGradient id="paint27_linear_1870_1908" x1="75.1902" y1="14.8889" x2="108.3" y2="16.6682"
            gradientUnits="userSpaceOnUse">
            <stop stop-color="#FF88C7" />
            <stop offset="1" stop-color="#F746A3" />
        </linearGradient>
    </defs>
</svg>