<svg width="70" height="70" viewBox="0 0 70 70" fill="none" xmlns="http://www.w3.org/2000/svg">
<path fill-rule="evenodd" clip-rule="evenodd" d="M31.2005 51.6597C32.7285 57.4886 38.2127 61.9365 40.9811 61.7543C41.0777 61.7477 51.4863 59.7477 57.1834 49.9341C61.6182 42.2984 60.1077 34.9261 54.0769 34.7658C51.9078 34.9283 28.2871 40.553 31.2005 51.6597ZM36.4388 7.773C32.5112 7.773 28.7833 8.61605 25.4111 10.1199C24.8211 10.3672 24.2463 10.6495 23.6899 10.9652C23.3079 11.1693 22.9259 11.3713 22.5571 11.5909L22.6449 11.6194C21.5274 12.3944 20.5658 13.2967 19.7776 14.3417C11.9773 24.6691 38.1205 32.1752 52.0966 32.2016C58.5292 36.8274 60.3339 19.1739 54.0505 14.2737C49.1483 10.0668 42.8986 7.75996 36.4388 7.773Z" fill="#0E3CA5"/>
<path fill-rule="evenodd" clip-rule="evenodd" d="M26.6135 13.828C23.0789 19.0202 11.3026 22.68 9.3662 22.1092L9.35742 22.0872L9.59892 21.6196C11.6222 17.8232 14.4954 14.5458 17.9943 12.0431C18.7187 11.5228 19.4696 11.0376 20.2446 10.5853C21.8889 9.65228 23.5794 9.5952 24.1349 9.57324C29.3776 9.66984 26.6399 13.7863 26.6113 13.828" fill="#5493F7"/>
<mask id="mask0_1_2969" style="mask-type:alpha" maskUnits="userSpaceOnUse" x="5" y="25" width="19" height="37">
<path d="M5.75781 25.7681H23.7538V61.7578H5.75781V25.7681Z" fill="white"/>
</mask>
<g mask="url(#mask0_1_2969)">
<path fill-rule="evenodd" clip-rule="evenodd" d="M23.6484 52.7368C23.9119 54.4426 23.6418 61.1848 23.2862 61.7534C22.9832 61.771 22.3465 61.8105 20.509 60.7918C16.9434 58.7829 13.8388 56.0486 11.3957 52.7653C9.60848 50.3603 8.20844 47.6906 7.24635 44.853C6.25598 41.9176 5.75315 38.8398 5.75785 35.7419C5.75237 32.3364 6.36071 28.9578 7.55371 25.7681H7.5581C9.66572 28.5321 12.1026 31.0327 14.1729 33.8253C16.1466 36.4818 18.8602 40.8134 19.4112 41.7398C22.8405 47.4853 23.3872 51.0309 23.6484 52.7368Z" fill="#5493F7"/>
</g>
<path fill-rule="evenodd" clip-rule="evenodd" d="M63.3447 36.061C63.3447 39.7471 62.6422 43.2708 61.371 46.5024C58.034 50.103 35.5264 41.2422 35.3047 41.1456C32.2267 39.7932 22.8566 35.6746 22.0113 29.2068C20.7951 19.9026 39.6143 13.4173 47.8845 13.1714C48.8746 13.1824 51.8934 13.2175 53.6519 14.6533C56.7013 17.3231 59.1439 20.6146 60.8158 24.3067C62.4876 27.9987 63.3499 32.0058 63.3447 36.0588V36.061ZM43.6627 59.0757C45.0085 54.3116 56.776 49.429 59.3732 49.1655C59.6937 49.1326 59.8299 49.3587 59.6894 49.6178C56.9802 54.5443 52.9691 58.6015 48.115 61.2316C45.6605 62.4215 42.9602 61.5543 43.6627 59.0757Z" fill="#5493F7"/>
</svg>
