<svg width="23" height="21" viewBox="0 0 23 21" fill="none" xmlns="http://www.w3.org/2000/svg">
<path d="M13.6227 8.76877L23.0012 20.9682H21.32C19.7917 20.9682 18.2635 20.9549 16.7352 20.9778C16.554 20.992 16.3723 20.958 16.2096 20.8794C16.0468 20.8007 15.9091 20.6805 15.8113 20.5315C13.9696 18.1125 12.1081 15.7006 10.2528 13.2876C10.1284 13.1292 10.0041 12.9743 9.76655 12.6828C9.64096 12.8788 9.50308 13.067 9.35369 13.2465C7.14024 15.5797 4.90441 17.8923 2.71832 20.2473C2.22091 20.7879 1.72351 21.094 0.966211 20.973C0.717509 20.9331 0.446421 20.9657 0 20.9657C3.0379 17.7774 5.95518 14.7064 8.93961 11.5761L0.0982423 0.0746096C0.361867 0.0540474 0.53098 0.0286465 0.700098 0.0286465C2.58029 0.0286465 4.45923 0.0395279 6.33818 0.0165467C6.51932 0.00439408 6.70047 0.0402758 6.8623 0.120366C7.02413 0.200456 7.16059 0.321754 7.25713 0.471334C8.91349 2.6485 10.5885 4.82568 12.2585 6.99196C12.3941 7.16734 12.5334 7.34031 12.8418 7.73341C12.986 7.48182 13.0619 7.25805 13.2148 7.0996C15.2417 4.95509 17.291 2.83115 19.308 0.673332C19.7445 0.204032 20.1785 -0.0777949 20.8438 0.0189681C21.1447 0.0625115 21.4581 0.0262251 21.953 0.0262251L13.6227 8.76877ZM3.115 1.47041C3.14188 1.55932 3.17726 1.64557 3.2207 1.72805C7.70563 7.56689 12.1947 13.4025 16.6879 19.2349C16.7874 19.3643 16.9727 19.507 17.1207 19.5107C18.0396 19.5361 18.9598 19.524 20.0193 19.524C19.6264 19.0027 19.3192 18.5878 19.0034 18.1778C14.8376 12.7582 10.6693 7.34313 6.4986 1.93246C6.35186 1.74256 6.11062 1.50791 5.90295 1.49703C5.0014 1.44865 4.08992 1.47041 3.115 1.47041Z" fill="white"/>
</svg>
